<?xml version="1.0" encoding="utf-8"?>
<!-- Generator: Adobe Illustrator 16.0.0, SVG Export Plug-In . SVG Version: 6.00 Build 0)  -->
<!DOCTYPE svg PUBLIC "-//W3C//DTD SVG 1.1//EN" "http://www.w3.org/Graphics/SVG/1.1/DTD/svg11.dtd">
<svg version="1.1" id="Layer_1" xmlns="http://www.w3.org/2000/svg" xmlns:xlink="http://www.w3.org/1999/xlink" x="0px" y="0px"
	 width="511px" height="112px" viewBox="0 0 511 112" enable-background="new 0 0 511 112" xml:space="preserve">
<g>
	<path fill="#4490CE" d="M398.5,72.2c0,0.2,0,0.2-0.2,0.2h-2c-0.1,0-0.2-0.1-0.2-0.2v-1.9c0-0.2,0.1-0.2,0.2-0.2h2
		c0.2,0,0.2,0.1,0.2,0.2V72.2z M398.3,87.7h-2c-0.1,0-0.2-0.1-0.2-0.2V74.8c0-0.1,0.1-0.2,0.2-0.2h2c0.2,0,0.2,0.1,0.2,0.2v12.7
		C398.5,87.6,398.5,87.7,398.3,87.7z"/>
	<path fill="#4490CE" d="M457,72.2c0,0.2,0,0.2-0.2,0.2h-2c-0.1,0-0.2-0.1-0.2-0.2v-1.9c0-0.2,0.1-0.2,0.2-0.2h2
		c0.2,0,0.2,0.1,0.2,0.2V72.2z"/>
	<g>
		<g>
			<g>
				<g>
					<g>
						<g>
							<path fill="#E52620" d="M307.8,31.5l-14.6,21.1c-1.9,2.8-5,5.5-8.8,5.7v0.6h16.2c4.3,0,7.5-2.8,9.6-5.9l15-21.6H307.8
								L307.8,31.5z"/>
						</g>
						<g>
							<path fill="#191B36" d="M38.8,59.1V33.9h7.4v25.2H38.8L38.8,59.1z M208.4,59.1l-17.7-15v15h-6.2V33.9h5.3l17.4,14.7V33.9h6.2
								v25.2H208.4L208.4,59.1z M246.8,42c-3.3-1.6-7.1-3-12-3c-5.9,0-10.3,3.1-10.3,7.3c0,4.4,4.5,7.5,10.3,7.5
								c4.8,0,8.6-1.2,12.3-3.4v6.2c-3.3,1.6-7.7,2.9-12.6,2.9c-10.1,0-18-5.1-18-13.2c0-7.9,8.1-13,18-13c4.7,0,8.9,0.9,12.4,2.3
								V42L246.8,42z M87,59.1V33.9h24.6v5.4H94.4v6.3h16.8v5.4H94.4v8.1H87L87,59.1z M251.2,59.1V33.9h25.5v5.4h-18.2v4.4h17.9V49
								h-17.9v4.6h18.1v5.4H251.2L251.2,59.1z M137.2,49.6l10.2,9.5h-7.8c-1.7,0-2.9-0.5-3.8-1.4l-6.9-6.7c-0.1-0.1-0.3-0.2-0.6-0.2
								h-4.7v8.3h-7.4V33.9H132c8.3,0,11.7,3.7,11.7,7.8C143.8,46.5,139.5,48.8,137.2,49.6L137.2,49.6L137.2,49.6z M131.3,45.5
								c2.9,0,4.3-1.5,4.3-3.1c0-1.7-1.2-3-4.3-3h-7.8v6.2H131.3L131.3,45.5z M74.1,49.6l10.2,9.5h-7.8c-1.7,0-2.9-0.5-3.8-1.4
								l-6.9-6.7c-0.1-0.1-0.3-0.2-0.6-0.2h-4.7v8.3H53V33.9h15.9c8.3,0,11.7,3.7,11.7,7.8C80.7,46.5,76.4,48.8,74.1,49.6L74.1,49.6
								L74.1,49.6z M68.2,45.5c2.9,0,4.3-1.5,4.3-3.1c0-1.7-1.2-3-4.3-3h-7.8v6.2H68.2L68.2,45.5z M27.3,59.1L24,53.5H9.9L7,59.1H0
								l14-25.2h6.4l15.9,25.2H27.3L27.3,59.1z M12.8,48.3H21l-4.3-7.7L12.8,48.3L12.8,48.3z M174.1,59.1l-3.2-5.5h-13.7l-2.8,5.5
								h-6.8l13.7-25.2h6.2l15.5,25.2H174.1L174.1,59.1z M160,48.3h8l-4.2-7.7L160,48.3L160,48.3z"/>
						</g>
					</g>
				</g>
			</g>
			<g>
				<path fill="#191B36" d="M0,95.7V72.1h4.3v23.5H0z"/>
				<path fill="#191B36" d="M36.5,95.7L15.1,76.8v18.8h-3.3V72.1h3.9L37,90.6V72.1h3.2v23.5H36.5z"/>
				<path fill="#191B36" d="M47.8,95.7V72.1h14.3c8.7,0,15.3,3.9,15.3,11.5c0,7.2-6.7,12-15.3,12H47.8z M61.8,92.9
					c6,0,10.8-3.2,10.8-9.3c0-6.3-4.8-8.8-10.8-8.8H52v18H61.8z"/>
				<path fill="#191B36" d="M107.4,72.1h4.3v12.4c0,7.3-5.2,11.6-15.1,11.6s-15.1-4.3-15.1-11.6V72.1h4.3v12.2
					c0,6.2,4.5,8.8,10.9,8.8c6,0,10.9-2.6,10.9-8.8V72.1z"/>
				<path fill="#191B36" d="M124.2,84.7c-5-0.9-8.2-2.9-8.2-6.5c0-4,4.2-6.6,13.9-6.6c4.3,0,8.7,0.7,12.2,1.7l0.1,3.2
					c-3.9-1.3-8.3-2-12.3-2c-6.3,0-9.5,1.2-9.5,3.4c0,1.9,1.9,2.6,5.3,3.2l10.2,1.9c5,0.9,7.5,2.7,7.5,6.3c0,5-6,6.8-13.6,6.8
					c-4.5,0-10.1-0.9-13.2-1.9l0.1-3.3c3.3,1.2,8.3,2.3,12.8,2.3c7.3,0,9.6-1.4,9.6-3.5c0-1.5-0.9-2.3-5.1-3.1L124.2,84.7z"/>
				<path fill="#191B36" d="M157.6,95.7V74.9h-13.1v-2.8h30.4v2.8h-13.1v20.8H157.6z"/>
				<path fill="#191B36" d="M202,95.7l-8-8.9h-10.2v8.9h-4.3V72.1H197c5.7,0,9.3,2.7,9.3,7.1c0,4-3.5,6.5-7.5,7.3l8.6,9.2H202z
					 M183.8,74.9v9.2h11.3c4.5,0,6.5-1.8,6.5-4.7c0-2.9-2.2-4.5-5.4-4.5H183.8z"/>
				<path fill="#191B36" d="M211.4,95.7V72.1h4.3v23.5H211.4z"/>
				<path fill="#191B36" d="M223.2,95.7V72.1h23.6v2.8h-19.3v7.3h19V85h-19v7.9h19.3v2.8H223.2z"/>
				<path fill="#191B36" d="M258.6,84.7c-5-0.9-8.2-2.9-8.2-6.5c0-4,4.2-6.6,13.9-6.6c4.3,0,8.7,0.7,12.2,1.7l0.1,3.2
					c-3.9-1.3-8.3-2-12.3-2c-6.3,0-9.5,1.2-9.5,3.4c0,1.9,1.9,2.6,5.3,3.2l10.2,1.9c5,0.9,7.5,2.7,7.5,6.3c0,5-6,6.8-13.6,6.8
					c-4.5,0-10.1-0.9-13.2-1.9l0.1-3.3c3.3,1.2,8.3,2.3,12.8,2.3c7.3,0,9.6-1.4,9.6-3.5c0-1.5-0.9-2.3-5.1-3.1L258.6,84.7z"/>
			</g>
		</g>
		<path fill="#4490CE" d="M402,9.5h3.1V6.3h3.1V3.2h-3.1V0H402v3.2h-3.1v3.1h3.1V9.5 M422.5,8.7c-3,0-5.5,2.5-5.5,5.5
			c0,3,2.5,5.5,5.5,5.5s5.5-2.5,5.5-5.5C428,11.1,425.5,8.7,422.5,8.7z M384.8,21.3v6.3h37.7v-6.3H384.8z M390.3,14.2
			c0-3-2.5-5.5-5.5-5.5c-3,0-5.5,2.5-5.5,5.5c0,3,2.5,5.5,5.5,5.5C387.8,19.7,390.3,17.2,390.3,14.2z M404.4,14.2
			c0,3,2.5,5.5,5.5,5.5c3,0,5.5-2.5,5.5-5.5c0-3-2.5-5.5-5.5-5.5C406.9,8.7,404.4,11.1,404.4,14.2z M397.3,19.7c3,0,5.5-2.5,5.5-5.5
			c0-3-2.5-5.5-5.5-5.5c-3,0-5.5,2.5-5.5,5.5C391.8,17.2,394.3,19.7,397.3,19.7z M438.2,33.9L433.5,48l-4.7-14.2H413v25.2h9.4V40.2
			l6.3,18.9h9.4l6.3-18.9v18.9h9.4V33.9H438.2z M394.2,33.9h-9.4v25.2h25.1v-6.4h-15.7V33.9z M381.6,33.9h-9.4l-9.4,9.4v-9.4h-9.4
			v25.2h9.4v-9.5l9.4,9.5h12.6l-14.1-14.2L381.6,33.9z"/>
		<g>
			<path fill="#4490CE" d="M364,87.5c0,0.2-0.1,0.2-0.2,0.2h-10.2c-0.1,0-0.2-0.1-0.2-0.3V72.4c0-0.2,0.1-0.3,0.2-0.3h10
				c0.2,0,0.3,0.1,0.3,0.3v1.3c0,0.1,0,0.3-0.3,0.3H356c-0.2,0-0.2,0.1-0.2,0.2v4.4c0,0.1,0.1,0.2,0.2,0.2h5.5
				c0.2,0,0.2,0.1,0.2,0.2v1.3c0,0.1-0.1,0.2-0.2,0.2H356c-0.2,0-0.2,0.1-0.2,0.2v4.8c0,0.2,0.1,0.2,0.2,0.2h8
				c0.1,0,0.2,0.1,0.2,0.2L364,87.5z"/>
			<path fill="#4490CE" d="M377.9,87.7h-2c-0.2,0-0.2,0-0.2-0.2v-7.8c0-2.5-1.3-3.2-3.7-3.2c-0.8,0-1.9,0.1-2.7,0.2
				c-0.2,0-0.2,0-0.2,0.2v10.7c0,0.2-0.1,0.2-0.2,0.2h-2c-0.2,0-0.2,0-0.2-0.2V75.3c0-0.2,0-0.2,0.3-0.3c1.8-0.3,3.9-0.5,5.2-0.5
				c3.8,0,6.1,1.1,6.1,5v8C378.1,87.6,378,87.7,377.9,87.7z"/>
			<path fill="#4490CE" d="M392.5,84.2c0,3.5-0.8,5.8-2.7,7.7c-0.1,0.1-0.2,0.2-0.4,0.2h-2c-0.1,0-0.2-0.1-0.2-0.2
				c0,0,0-0.1,0.1-0.1c0.6-0.6,2.3-2.6,2.4-4c0-0.1,0-0.2-0.2-0.2c0,0,0,0-0.1,0c-0.7,0.1-1.7,0.2-2.4,0.2c-3.4,0-6.4-1.9-6.4-6.9
				c0-4.9,3.3-6.4,6.8-6.4c1.5,0,3.2,0.2,4.8,0.5c0.1,0,0.2,0.1,0.2,0.3V84.2z M390.1,76.9c0-0.1,0-0.2-0.2-0.2
				c-0.6-0.1-1.5-0.2-2.4-0.2c-2.6,0-4.3,1.1-4.3,4.5c0,3.4,1.6,5,4.2,5c0.6,0,1.7-0.1,2.5-0.2c0.1,0,0.2-0.1,0.2-0.3V76.9z"/>
			<path fill="#4490CE" d="M413.6,87.7h-2c-0.2,0-0.2,0-0.2-0.2v-7.8c0-2.5-1.3-3.2-3.7-3.2c-0.8,0-1.9,0.1-2.7,0.2
				c-0.2,0-0.2,0-0.2,0.2v10.7c0,0.2-0.1,0.2-0.2,0.2h-2c-0.2,0-0.2,0-0.2-0.2V75.3c0-0.2,0-0.2,0.2-0.3c1.8-0.3,3.9-0.5,5.2-0.5
				c3.8,0,6.1,1.1,6.1,5v8C413.8,87.6,413.7,87.7,413.6,87.7z"/>
			<path fill="#4490CE" d="M428.8,82.2h-9.6c-0.1,0-0.2,0-0.2,0.2c0.1,2.9,2,3.5,4.9,3.5c1.1,0,2.2-0.1,3.5-0.2c0.1,0,0.2,0,0.2,0.2
				c0,0,0,0,0,0l-0.2,1.4c0,0.2-0.1,0.2-0.3,0.2c-1.1,0.2-2.5,0.3-4,0.3c-3.9,0-6.6-1.6-6.6-6.7c0-4.9,2.8-6.6,6.3-6.6
				c4.2,0,6.2,2.3,6.2,7.4C429,82.1,428.9,82.2,428.8,82.2z M422.7,76.4c-2.3,0-3.7,1.2-3.7,3.8c0,0.2,0,0.2,0.2,0.2h7.1
				c0.2,0,0.2,0,0.2-0.2C426.5,77.6,424.9,76.4,422.7,76.4z"/>
			<path fill="#4490CE" d="M443.5,82.2h-9.6c-0.1,0-0.2,0-0.2,0.2c0.1,2.9,2,3.5,4.9,3.5c1.1,0,2.2-0.1,3.5-0.2c0.1,0,0.2,0,0.2,0.2
				c0,0,0,0,0,0l-0.2,1.4c-0.1,0.2-0.1,0.2-0.3,0.2c-1.1,0.2-2.5,0.3-4,0.3c-3.9,0-6.6-1.6-6.6-6.7c0-4.9,2.8-6.6,6.3-6.6
				c4.2,0,6.2,2.3,6.2,7.4C443.7,82.1,443.6,82.2,443.5,82.2z M437.4,76.4c-2.3,0-3.7,1.2-3.7,3.8c0,0.2,0,0.2,0.2,0.2h7.1
				c0.2,0,0.3,0,0.3-0.2C441.2,77.6,439.7,76.4,437.4,76.4z"/>
			<path fill="#4490CE" d="M452,76.4c-1,0-1.8,0.1-2.8,0.1c-0.2,0-0.3,0.1-0.3,0.2v10.7c0,0.2,0,0.2-0.2,0.2h-2
				c-0.1,0-0.2-0.1-0.2-0.2V75.3c0-0.2,0.1-0.3,0.2-0.3c1.6-0.2,3.3-0.5,5.2-0.5c0.1,0,0.2,0.1,0.2,0.2v1.5
				C452.2,76.4,452.2,76.4,452,76.4z"/>
			<path fill="#4490CE" d="M456.8,87.7h-2c-0.1,0-0.2-0.1-0.2-0.2V74.8c0-0.1,0.1-0.2,0.2-0.2h2c0.2,0,0.2,0.1,0.2,0.2v12.7
				C457,87.6,457,87.7,456.8,87.7z"/>
			<path fill="#4490CE" d="M472,87.7h-2c-0.2,0-0.2,0-0.2-0.2v-7.8c0-2.5-1.3-3.2-3.7-3.2c-0.8,0-1.9,0.1-2.7,0.2
				c-0.2,0-0.2,0-0.2,0.2v10.7c0,0.2-0.1,0.2-0.2,0.2h-2c-0.2,0-0.2,0-0.2-0.2V75.3c0-0.2,0-0.2,0.3-0.3c1.8-0.3,3.9-0.5,5.2-0.5
				c3.8,0,6.1,1.1,6.1,5v8C472.3,87.6,472.2,87.7,472,87.7z"/>
			<path fill="#4490CE" d="M486.7,84.2c0,3.5-0.8,5.8-2.7,7.7c-0.1,0.1-0.2,0.2-0.4,0.2h-2c-0.1,0-0.2-0.1-0.2-0.2
				c0,0,0-0.1,0.1-0.1c0.6-0.6,2.3-2.6,2.5-4c0-0.1,0-0.2-0.2-0.2c0,0,0,0-0.1,0c-0.7,0.1-1.6,0.2-2.4,0.2c-3.4,0-6.4-1.9-6.4-6.9
				c0-4.9,3.3-6.4,6.8-6.4c1.5,0,3.2,0.2,4.8,0.5c0.1,0,0.2,0.1,0.2,0.3V84.2z M484.2,76.9c0-0.1,0-0.2-0.2-0.2
				c-0.6-0.1-1.5-0.2-2.4-0.2c-2.6,0-4.3,1.1-4.3,4.5c0,3.4,1.6,5,4.2,5c0.6,0,1.7-0.1,2.5-0.2c0.1,0,0.2-0.1,0.2-0.3V76.9z"/>
			<g>
				<path fill="#4490CE" d="M510.4,80.4H509c-0.1,0-0.2,0.1-0.2,0.2v1.8c0,3.9-2.8,5.4-6,5.4c-3.2,0-5.9-1.7-5.9-5
					c0-1.7,0.9-3.1,2.2-3.9c-0.6-0.7-1.3-1.6-1.3-3.1c0-2.8,2.8-3.9,5.4-3.9c1.2,0,2.3,0.2,3.3,0.3c0.1,0,0.2,0.1,0.2,0.2v1.3
					c0,0.1,0,0.2-0.2,0.2c-0.7-0.1-2.1-0.3-3.2-0.3c-2,0-3.1,0.8-3.1,2.3c0,1.9,1.3,2.6,3.3,2.6l6.9,0c0.2,0,0.2,0.1,0.2,0.2
					c0,0.3,0,1.4,0,1.4C510.6,80.4,510.6,80.4,510.4,80.4z M506.5,80.4c-2.9,0-3.7,0-6,0c-0.6,0.4-1.2,1.3-1.2,2.5
					c0,1.8,1.3,2.9,3.6,2.9c2.5,0,3.9-1.2,3.9-3.4v-1.8C506.7,80.5,506.6,80.4,506.5,80.4z"/>
				<path fill="#4490CE" d="M372.4,111.5c0,0.1-0.1,0.2-0.2,0.2h-2c-0.1,0-0.2-0.1-0.2-0.2l-1.8-13.6h-0.4l-2.5,13.6
					c0,0.2-0.1,0.2-0.2,0.2h-3.8c-0.2,0-0.2-0.1-0.2-0.3l-2.5-13.5h-0.4l-1.8,13.5c0,0.2-0.1,0.3-0.2,0.3H354
					c-0.1,0-0.2-0.1-0.2-0.2v0l1.9-15.1c0-0.2,0.1-0.2,0.2-0.2h4.4c0.2,0,0.2,0,0.2,0.2l2.5,13.5h0.2l2.5-13.5
					c0-0.1,0.1-0.2,0.2-0.2h4.2c0.1,0,0.2,0.1,0.2,0.2L372.4,111.5L372.4,111.5z"/>
				<path fill="#4490CE" d="M385.9,111.1c0,0.2,0,0.3-0.3,0.3c-1.8,0.2-4.3,0.5-5.6,0.5c-2.6,0-5.6-0.8-5.6-4.7c0-3.7,3.6-4,5.5-4
					c0.9,0,2.8,0.2,3.5,0.3c0-2.6-1.5-3.1-3.8-3.1c-1.2,0-2.3,0.1-3.2,0.2c0,0,0,0-0.1,0c-0.1,0-0.2-0.1-0.2-0.2l-0.2-1.4v0
					c0-0.1,0.1-0.2,0.2-0.2c1.2-0.2,2.8-0.3,3.9-0.3c3.6,0,5.9,1.1,5.9,4.7V111.1z M383.5,105.3c0-0.1,0-0.2-0.3-0.2h-3.1
					c-1.6,0-3.2,0.2-3.2,2.1c0,2.3,1.7,2.6,3.1,2.6h3.2c0.2,0,0.3,0,0.3-0.2V105.3z"/>
				<path fill="#4490CE" d="M391.8,96.2c0,0.2,0,0.2-0.2,0.2h-2c-0.1,0-0.2-0.1-0.2-0.2v-1.9c0-0.2,0.1-0.2,0.2-0.2h2
					c0.2,0,0.2,0.1,0.2,0.2V96.2z M391.6,111.7h-2c-0.1,0-0.2-0.1-0.2-0.2V98.8c0-0.1,0.1-0.2,0.2-0.2h2c0.2,0,0.2,0.1,0.2,0.2v12.7
					C391.8,111.6,391.8,111.7,391.6,111.7z"/>
				<path fill="#4490CE" d="M406.8,111.7h-2c-0.2,0-0.2,0-0.2-0.2v-7.8c0-2.5-1.3-3.2-3.7-3.2c-0.8,0-1.9,0.1-2.7,0.2
					c-0.2,0-0.2,0-0.2,0.2v10.7c0,0.2-0.1,0.2-0.2,0.2h-2c-0.2,0-0.2,0-0.2-0.2V99.3c0-0.2,0-0.2,0.3-0.3c1.8-0.3,3.9-0.5,5.2-0.5
					c3.8,0,6.1,1.1,6.1,5v8C407,111.6,407,111.7,406.8,111.7z"/>
				<path fill="#4490CE" d="M416.9,111.4c-0.1,0.1-0.1,0.2-0.3,0.2c-1,0.1-1.6,0.2-2.4,0.2c-2.2,0-3.1-1-3.1-3.3v-8.2
					c0-0.2-0.1-0.2-0.2-0.2h-1.6c-0.2,0-0.2-0.1-0.2-0.3v-1.1c0-0.1,0.1-0.2,0.2-0.2h1.6c0.1,0,0.2-0.1,0.2-0.2v-3
					c0-0.2,0-0.2,0.2-0.3l1.9-0.2c0.2,0,0.3,0.1,0.3,0.2v3.3c0,0.2,0,0.2,0.2,0.2h2.5c0.2,0,0.2,0.1,0.2,0.2v1.1
					c0,0.1-0.1,0.2-0.2,0.2h-2.5c-0.2,0-0.2,0.1-0.2,0.2v7.5c0,1.3,0.2,1.9,1.9,1.9c0.4,0,0.8,0,1.4,0c0.2,0,0.2,0.1,0.2,0.2
					L416.9,111.4z"/>
				<path fill="#4490CE" d="M431,106.2h-9.6c-0.1,0-0.2,0-0.2,0.2c0.1,2.9,2,3.5,4.9,3.5c1.1,0,2.2-0.1,3.5-0.2c0.1,0,0.2,0,0.2,0.2
					c0,0,0,0,0,0l-0.2,1.4c0,0.2-0.1,0.2-0.3,0.2c-1.1,0.2-2.5,0.3-4,0.3c-3.9,0-6.6-1.6-6.6-6.7c0-4.9,2.8-6.6,6.3-6.6
					c4.2,0,6.2,2.3,6.2,7.4C431.2,106.1,431.1,106.2,431,106.2z M424.8,100.3c-2.2,0-3.7,1.2-3.7,3.8c0,0.2,0,0.2,0.2,0.2h7.1
					c0.2,0,0.2,0,0.2-0.2C428.6,101.6,427.1,100.3,424.8,100.3z"/>
				<path fill="#4490CE" d="M445.2,111.7h-2c-0.2,0-0.2,0-0.2-0.2v-7.8c0-2.5-1.3-3.2-3.7-3.2c-0.8,0-1.9,0.1-2.7,0.2
					c-0.2,0-0.2,0-0.2,0.2v10.7c0,0.2-0.1,0.2-0.2,0.2h-2c-0.2,0-0.2,0-0.2-0.2V99.3c0-0.2,0.1-0.2,0.3-0.3c1.8-0.3,3.9-0.5,5.2-0.5
					c3.8,0,6.1,1.1,6.1,5v8C445.4,111.6,445.4,111.7,445.2,111.7z"/>
				<path fill="#4490CE" d="M459.4,111.1c0,0.2,0,0.3-0.3,0.3c-1.8,0.2-4.3,0.5-5.5,0.5c-2.6,0-5.6-0.8-5.6-4.7c0-3.7,3.6-4,5.5-4
					c0.9,0,2.8,0.2,3.5,0.3c0-2.6-1.5-3.1-3.8-3.1c-1.2,0-2.3,0.1-3.2,0.2c0,0,0,0-0.1,0c-0.1,0-0.2-0.1-0.2-0.2l-0.2-1.4v0
					c0-0.1,0.1-0.2,0.2-0.2c1.2-0.2,2.8-0.3,3.9-0.3c3.5,0,5.9,1.1,5.9,4.7V111.1z M457,105.3c0-0.1-0.1-0.2-0.3-0.2h-3.1
					c-1.6,0-3.2,0.2-3.2,2.1c0,2.3,1.7,2.6,3.1,2.6h3.2c0.2,0,0.3,0,0.3-0.2V105.3z"/>
				<path fill="#4490CE" d="M474.3,111.7h-2c-0.2,0-0.2,0-0.2-0.2v-7.8c0-2.5-1.3-3.2-3.7-3.2c-0.8,0-1.9,0.1-2.7,0.2
					c-0.2,0-0.2,0-0.2,0.2v10.7c0,0.2-0.1,0.2-0.2,0.2h-2c-0.2,0-0.2,0-0.2-0.2V99.3c0-0.2,0-0.2,0.3-0.3c1.8-0.3,3.9-0.5,5.2-0.5
					c3.8,0,6.1,1.1,6.1,5v8C474.5,111.6,474.5,111.7,474.3,111.7z"/>
				<path fill="#4490CE" d="M487.5,111.6c-0.9,0.1-2.3,0.3-3.5,0.3c-4.3,0-6.9-2.1-6.9-6.8c0-4.9,3.5-6.6,6.9-6.6
					c1,0,2.5,0.1,3.4,0.3c0.2,0,0.2,0.1,0.2,0.2l-0.2,1.3c0,0.1-0.1,0.2-0.2,0.2c0,0,0,0,0,0c-0.9-0.1-1.7-0.1-2.8-0.1
					c-2.8,0-4.8,1.2-4.8,4.6c0,3.6,2,4.8,4.8,4.8c1.2,0,2.3,0,3.1-0.1c0,0,0,0,0.1,0c0.1,0,0.2,0.1,0.2,0.2v1.4
					C487.8,111.5,487.7,111.5,487.5,111.6z"/>
				<path fill="#4490CE" d="M501.9,106.2h-9.6c-0.1,0-0.2,0-0.2,0.2c0.1,2.9,2,3.5,4.9,3.5c1.1,0,2.2-0.1,3.5-0.2
					c0.1,0,0.2,0,0.2,0.2c0,0,0,0,0,0l-0.2,1.4c0,0.2-0.1,0.2-0.3,0.2c-1.1,0.2-2.5,0.3-4,0.3c-3.9,0-6.6-1.6-6.6-6.7
					c0-4.9,2.8-6.6,6.3-6.6c4.2,0,6.2,2.3,6.2,7.4C502.1,106.1,502.1,106.2,501.9,106.2z M495.8,100.3c-2.2,0-3.7,1.2-3.7,3.8
					c0,0.2,0,0.2,0.2,0.2h7.1c0.2,0,0.2,0,0.2-0.2C499.6,101.6,498.1,100.3,495.8,100.3z"/>
			</g>
		</g>
	</g>
</g>
</svg>
