<?xml version="1.0" encoding="utf-8"?>
<!-- Generator: Adobe Illustrator 16.0.0, SVG Export Plug-In . SVG Version: 6.00 Build 0)  -->
<!DOCTYPE svg PUBLIC "-//W3C//DTD SVG 1.1//EN" "http://www.w3.org/Graphics/SVG/1.1/DTD/svg11.dtd">
<svg version="1.1" id="Layer_1" xmlns="http://www.w3.org/2000/svg" xmlns:xlink="http://www.w3.org/1999/xlink" x="0px" y="0px"
	 width="511px" height="112px" viewBox="0 0 511 112" enable-background="new 0 0 511 112" xml:space="preserve">
<g>
	<path fill="#00A1E4" d="M398.55,72.291c0,0.158-0.041,0.227-0.199,0.227h-1.994c-0.119,0-0.215-0.068-0.215-0.25v-1.883
		c0-0.16,0.078-0.229,0.215-0.229h1.994c0.158,0,0.199,0.068,0.199,0.229V72.291z M398.351,87.783h-1.996
		c-0.137,0-0.213-0.068-0.213-0.234V74.902c0-0.133,0.076-0.225,0.238-0.225h1.953c0.174,0,0.217,0.066,0.217,0.205v12.664
		C398.55,87.713,398.509,87.783,398.351,87.783z"/>
	<path fill="#00A1E4" d="M457.04,72.291c0,0.158-0.043,0.227-0.201,0.227h-1.994c-0.117,0-0.215-0.068-0.215-0.25v-1.883
		c0-0.16,0.078-0.229,0.215-0.229h1.994c0.158,0,0.201,0.068,0.201,0.229V72.291z"/>
	<g>
		<g>
			<g>
				<g>
					<g>
						<g>
							<path fill="#ED1C24" d="M307.763,31.625l-14.605,21.131c-1.928,2.783-5.043,5.459-8.812,5.748v0.646h16.244
								c4.316,0,7.463-2.808,9.59-5.898l14.996-21.627H307.763L307.763,31.625z"/>
						</g>
						
							<linearGradient id="SVGID_1_" gradientUnits="userSpaceOnUse" x1="613.7588" y1="-182.125" x2="613.7588" y2="-209.6509" gradientTransform="matrix(1 0 0 -1 -309 -150.5)">
							<stop  offset="0.4959" style="stop-color:#383839;stop-opacity:0"/>
							<stop  offset="0.9437" style="stop-color:#3C3C3D;stop-opacity:0.4731"/>
							<stop  offset="0.9692" style="stop-color:#3D3D3E;stop-opacity:0.5"/>
						</linearGradient>
						<path fill="url(#SVGID_1_)" d="M307.763,31.625l-14.605,21.131c-1.928,2.783-5.043,5.459-8.812,5.748v0.646h16.244
							c4.316,0,7.463-2.808,9.59-5.898l14.996-21.627H307.763L307.763,31.625z"/>
						<g>
							<path fill="#002157" d="M38.768,59.15V33.945h7.352V59.15H38.768L38.768,59.15z M208.366,59.15l-17.672-14.967V59.15h-6.209
								V33.945h5.273l17.439,14.731V33.945h6.209V59.15H208.366L208.366,59.15z M246.794,42.078
								c-3.328-1.637-7.066-2.965-12.029-2.965c-5.926,0-10.344,3.069-10.344,7.332c0,4.365,4.502,7.456,10.291,7.456
								c4.779,0,8.576-1.224,12.316-3.38v6.238c-3.301,1.635-7.686,2.857-12.625,2.857c-10.084,0-18.01-5.146-18.01-13.172
								c0-7.898,8.086-12.967,17.98-12.967c4.678,0,8.914,0.885,12.42,2.312L246.794,42.078L246.794,42.078z M87.046,59.15V33.945
								h24.584v5.404H94.401v6.264h16.834v5.402H94.401v8.135H87.046L87.046,59.15z M251.237,59.15V33.945h25.514v5.404h-18.158
								v4.365h17.877v5.403h-17.877v4.626h18.08v5.406H251.237L251.237,59.15z M137.169,49.694l10.162,9.456h-7.85
								c-1.74,0-2.881-0.549-3.791-1.428l-6.916-6.706c-0.125-0.128-0.336-0.205-0.6-0.205h-4.699v8.339h-7.354V33.945h15.928
								c8.264,0,11.742,3.718,11.742,7.821C143.792,46.55,139.534,48.839,137.169,49.694L137.169,49.694L137.169,49.694z
								 M131.296,45.534c2.91,0,4.309-1.481,4.309-3.145c0-1.664-1.24-3.04-4.309-3.04h-7.82v6.185H131.296L131.296,45.534z
								 M74.054,49.694l10.16,9.456h-7.846c-1.742,0-2.887-0.549-3.797-1.428l-6.91-6.706c-0.133-0.128-0.338-0.205-0.596-0.205
								h-4.707v8.339h-7.352V33.945h15.928c8.266,0,11.744,3.718,11.744,7.821C80.679,46.55,76.419,48.839,74.054,49.694
								L74.054,49.694L74.054,49.694z M68.18,45.534c2.912,0,4.318-1.481,4.318-3.145c0-1.664-1.25-3.04-4.318-3.04h-7.822v6.185
								H68.18L68.18,45.534z M27.257,59.15l-3.221-5.536H9.95L7.016,59.15H0l14.029-25.176h6.391L36.328,59.15H27.257L27.257,59.15z
								 M12.761,48.369h8.209l-4.264-7.692L12.761,48.369L12.761,48.369z M174.095,59.15l-3.15-5.536h-13.717L154.4,59.15h-6.834
								l13.664-25.176h6.213l15.459,25.176H174.095L174.095,59.15z M159.979,48.369h8.004l-4.158-7.692L159.979,48.369
								L159.979,48.369z"/>
						</g>
					</g>
				</g>
			</g>
			<g>
				<path fill="#002157" d="M0.001,95.734V72.186h4.266v23.549H0.001z"/>
				<path fill="#002157" d="M36.513,95.734L15.075,76.896v18.838h-3.271V72.186h3.934l21.273,18.451V72.186h3.217v23.549H36.513z"/>
				<path fill="#002157" d="M47.759,95.734V72.186h14.297c8.699,0,15.293,3.879,15.293,11.523c0,7.207-6.65,12.025-15.35,12.025
					H47.759L47.759,95.734z M61.833,92.965c6.039,0,10.807-3.217,10.807-9.256c0-6.316-4.768-8.752-10.807-8.752h-9.807v18.008
					H61.833L61.833,92.965z"/>
				<path fill="#002157" d="M107.434,72.186h4.266v12.355c0,7.314-5.154,11.637-15.127,11.637s-15.127-4.322-15.127-11.637V72.186
					h4.268v12.246c0,6.205,4.543,8.754,10.859,8.754c6.037,0,10.861-2.604,10.861-8.754V72.186L107.434,72.186z"/>
				<path fill="#002157" d="M124.221,84.818c-5.041-0.941-8.199-2.881-8.199-6.479c0-3.992,4.154-6.598,13.91-6.598
					c4.32,0,8.695,0.664,12.186,1.721l0.057,3.213c-3.936-1.273-8.256-2.049-12.301-2.049c-6.264,0-9.475,1.16-9.475,3.377
					c0,1.883,1.883,2.605,5.266,3.215l10.193,1.885c4.984,0.941,7.48,2.713,7.48,6.26c0,5.045-6.041,6.816-13.576,6.816
					c-4.49,0-10.084-0.887-13.188-1.939l0.057-3.322c3.268,1.215,8.256,2.326,12.801,2.326c7.254,0,9.588-1.441,9.588-3.494
					c0-1.494-0.889-2.328-5.102-3.1L124.221,84.818z"/>
				<path fill="#002157" d="M157.575,95.734V74.957h-13.076v-2.771h30.42v2.771h-13.076v20.777H157.575L157.575,95.734z"/>
				<path fill="#002157" d="M202.014,95.734l-8.035-8.863h-10.193v8.863h-4.268V72.186h17.51c5.705,0,9.254,2.715,9.254,7.094
					c0,3.988-3.549,6.48-7.535,7.256l8.643,9.199H202.014z M183.786,74.957v9.197h11.303c4.486,0,6.539-1.828,6.539-4.709
					c0-2.939-2.162-4.488-5.432-4.488H183.786L183.786,74.957z"/>
				<path fill="#002157" d="M211.434,95.734V72.186h4.266v23.549H211.434z"/>
				<path fill="#002157" d="M223.233,95.734V72.186h23.607v2.771H227.5v7.311h19.004v2.773H227.5v7.924h19.279v2.77H223.233z"/>
				<path fill="#002157" d="M258.64,84.818c-5.043-0.941-8.202-2.881-8.202-6.479c0-3.992,4.156-6.598,13.911-6.598
					c4.318,0,8.697,0.664,12.188,1.721l0.055,3.213c-3.934-1.273-8.258-2.049-12.301-2.049c-6.26,0-9.477,1.16-9.477,3.377
					c0,1.883,1.887,2.605,5.264,3.215l10.197,1.885c4.986,0.941,7.48,2.713,7.48,6.26c0,5.045-6.039,6.816-13.576,6.816
					c-4.486,0-10.084-0.887-13.188-1.939l0.059-3.322c3.268,1.215,8.254,2.326,12.799,2.326c7.258,0,9.586-1.441,9.586-3.494
					c0-1.494-0.889-2.328-5.102-3.1L258.64,84.818z"/>
			</g>
		</g>
		<path fill="#00A1E4" d="M402.044,9.526h3.141V6.375h3.141V3.229h-3.141V0.075h-3.141v3.153h-3.143v3.146h3.143V9.526 M422.47,8.74
			c-3.033,0-5.5,2.472-5.5,5.515c0,3.044,2.467,5.509,5.5,5.509c3.035,0,5.498-2.465,5.498-5.509S425.505,8.74,422.47,8.74z
			 M384.759,21.343v6.298h37.711v-6.298H384.759z M390.257,14.255c0-3.043-2.457-5.515-5.498-5.515
			c-3.033,0-5.506,2.472-5.506,5.515c0,3.044,2.473,5.509,5.506,5.509C387.8,19.764,390.257,17.299,390.257,14.255z M404.394,14.255
			c0,3.044,2.469,5.509,5.504,5.509c3.043,0,5.504-2.465,5.504-5.509c0-3.043-2.461-5.515-5.504-5.515
			C406.862,8.74,404.394,11.211,404.394,14.255z M397.329,19.764c3.031,0,5.498-2.465,5.498-5.509c0-3.043-2.467-5.515-5.498-5.515
			c-3.035,0-5.504,2.472-5.504,5.515C391.825,17.299,394.294,19.764,397.329,19.764z M438.192,33.945l-4.719,14.171l-4.715-14.171
			h-15.713V59.15h9.424V40.242l6.289,18.908h9.434l6.279-18.908V59.15h9.432V33.945H438.192z M394.19,33.945h-9.432V59.15h25.139
			v-6.357H394.19V33.945z M381.614,33.945h-9.424l-9.434,9.445v-9.445h-9.424V59.15h9.424v-9.459l9.434,9.459h12.568L370.61,44.963
			L381.614,33.945z"/>
		<g>
			<path fill="#00A1E4" d="M363.954,87.602c-0.021,0.162-0.092,0.182-0.205,0.182h-10.213c-0.133,0-0.203-0.115-0.203-0.254V72.441
				c0-0.186,0.07-0.254,0.203-0.254h10.047c0.189,0,0.258,0.137,0.258,0.254v1.309c0,0.135-0.049,0.254-0.258,0.254h-7.617
				c-0.154,0-0.229,0.062-0.229,0.227v4.402c0,0.113,0.094,0.209,0.229,0.209h5.475c0.168,0,0.236,0.113,0.236,0.229v1.35
				c0,0.141-0.088,0.23-0.236,0.23h-5.475c-0.154,0-0.229,0.088-0.229,0.236v4.766c0,0.162,0.074,0.229,0.229,0.229h8.031
				c0.141,0,0.189,0.072,0.189,0.236L363.954,87.602z"/>
			<path fill="#00A1E4" d="M377.88,87.783h-1.994c-0.166,0-0.211-0.041-0.211-0.227v-7.82c0-2.527-1.26-3.236-3.734-3.236
				c-0.777,0-1.93,0.092-2.664,0.16c-0.176,0-0.203,0.051-0.203,0.23v10.668c0,0.186-0.07,0.227-0.23,0.227h-1.992
				c-0.174,0-0.234-0.041-0.234-0.227V75.402c0-0.188,0.041-0.232,0.258-0.275c1.832-0.281,3.896-0.531,5.156-0.531
				c3.762,0,6.057,1.1,6.057,4.979v7.984C378.085,87.717,378.032,87.783,377.88,87.783z"/>
			<path fill="#00A1E4" d="M392.522,84.318c0,3.492-0.814,5.785-2.723,7.689c-0.137,0.109-0.217,0.182-0.387,0.182h-1.969
				c-0.146,0-0.229-0.072-0.229-0.164c0-0.045,0.025-0.09,0.066-0.135c0.57-0.574,2.342-2.617,2.449-3.969
				c0-0.139-0.039-0.205-0.178-0.205c-0.025,0-0.047,0-0.064,0c-0.713,0.094-1.66,0.205-2.371,0.205
				c-3.367,0-6.393-1.922-6.393-6.928c0-4.908,3.271-6.4,6.787-6.4c1.469,0,3.184,0.25,4.768,0.531
				c0.145,0.043,0.24,0.111,0.24,0.275v8.918H392.522z M390.085,76.932c0-0.135-0.025-0.223-0.17-0.246
				c-0.629-0.125-1.529-0.188-2.424-0.188c-2.594,0-4.266,1.125-4.266,4.457c0,3.389,1.598,4.996,4.176,4.996
				c0.645,0,1.738-0.072,2.473-0.16c0.137,0,0.211-0.096,0.211-0.254V76.932L390.085,76.932z"/>
			<path fill="#00A1E4" d="M413.552,87.783h-1.998c-0.156,0-0.209-0.041-0.209-0.227v-7.82c0-2.527-1.26-3.236-3.736-3.236
				c-0.783,0-1.926,0.092-2.656,0.16c-0.186,0-0.205,0.051-0.205,0.23v10.668c0,0.186-0.072,0.227-0.232,0.227h-2
				c-0.158,0-0.223-0.041-0.223-0.227V75.402c0-0.188,0.041-0.232,0.248-0.275c1.828-0.281,3.9-0.531,5.168-0.531
				c3.752,0,6.053,1.1,6.053,4.979v7.984C413.759,87.717,413.71,87.783,413.552,87.783z"/>
			<path fill="#00A1E4" d="M428.782,82.256h-9.592c-0.143,0-0.201,0.023-0.201,0.234c0.092,2.887,2.035,3.531,4.859,3.531
				c1.057,0,2.227-0.096,3.467-0.188c0.084,0,0.211,0.021,0.211,0.166c0,0.02,0,0.02,0,0.043l-0.211,1.395
				c-0.043,0.162-0.117,0.162-0.273,0.209c-1.127,0.162-2.504,0.297-3.973,0.297c-3.924,0-6.564-1.631-6.564-6.748
				c0-4.932,2.848-6.604,6.289-6.604c4.193,0,6.188,2.338,6.188,7.436C428.981,82.186,428.919,82.256,428.782,82.256z
				 M422.661,76.43c-2.254,0-3.699,1.244-3.699,3.783c0,0.182,0.047,0.232,0.201,0.232h7.121c0.164,0,0.246-0.027,0.246-0.203
				C426.46,77.674,424.94,76.43,422.661,76.43z"/>
			<path fill="#00A1E4" d="M443.505,82.256h-9.588c-0.141,0-0.201,0.023-0.201,0.234c0.092,2.887,2.033,3.531,4.854,3.531
				c1.062,0,2.234-0.096,3.479-0.188c0.086,0,0.197,0.021,0.197,0.166c0,0.02,0,0.02,0,0.043l-0.197,1.395
				c-0.053,0.162-0.125,0.162-0.275,0.209c-1.131,0.162-2.502,0.297-3.967,0.297c-3.926,0-6.564-1.631-6.564-6.748
				c0-4.932,2.836-6.604,6.281-6.604c4.195,0,6.193,2.338,6.193,7.436C443.714,82.186,443.647,82.256,443.505,82.256z
				 M437.388,76.43c-2.258,0-3.701,1.244-3.701,3.783c0,0.182,0.045,0.232,0.211,0.232h7.107c0.164,0,0.26-0.027,0.26-0.203
				C441.19,77.674,439.683,76.43,437.388,76.43z"/>
			<path fill="#00A1E4" d="M451.999,76.498c-1.018,0-1.764,0.062-2.754,0.139c-0.186,0.023-0.26,0.088-0.26,0.23v10.689
				c0,0.16-0.043,0.227-0.203,0.227h-1.99c-0.115,0-0.217-0.066-0.217-0.227V75.4c0-0.164,0.076-0.256,0.236-0.301
				c1.562-0.207,3.346-0.457,5.213-0.525c0.133,0,0.195,0.09,0.195,0.227v1.516C452.222,76.43,452.157,76.498,451.999,76.498z"/>
			<path fill="#00A1E4" d="M456.833,87.783h-1.994c-0.135,0-0.207-0.064-0.207-0.227V74.912c0-0.137,0.072-0.229,0.23-0.229h1.951
				c0.186,0,0.225,0.074,0.225,0.209v12.664C457.038,87.717,456.997,87.783,456.833,87.783z"/>
			<path fill="#00A1E4" d="M472.042,87.783h-1.99c-0.156,0-0.213-0.041-0.213-0.227v-7.82c0-2.527-1.256-3.236-3.738-3.236
				c-0.773,0-1.92,0.092-2.66,0.16c-0.184,0-0.205,0.051-0.205,0.23v10.668c0,0.186-0.066,0.227-0.23,0.227h-1.992
				c-0.158,0-0.23-0.041-0.23-0.227V75.402c0-0.188,0.047-0.232,0.254-0.275c1.838-0.281,3.902-0.531,5.16-0.531
				c3.764,0,6.061,1.1,6.061,4.979v7.984C472.255,87.717,472.208,87.783,472.042,87.783z"/>
			<path fill="#00A1E4" d="M486.679,84.318c0,3.492-0.799,5.785-2.703,7.689c-0.145,0.109-0.227,0.182-0.389,0.182h-1.977
				c-0.139,0-0.223-0.072-0.223-0.164c0-0.045,0.016-0.09,0.059-0.135c0.574-0.574,2.342-2.617,2.459-3.969
				c0-0.139-0.049-0.205-0.189-0.205c-0.02,0-0.045,0-0.066,0c-0.707,0.094-1.646,0.205-2.363,0.205
				c-3.363,0-6.395-1.922-6.395-6.928c0-4.908,3.273-6.4,6.789-6.4c1.469,0,3.189,0.25,4.766,0.531
				c0.146,0.043,0.232,0.111,0.232,0.275V84.318L486.679,84.318z M484.245,76.932c0-0.135-0.023-0.223-0.156-0.246
				c-0.639-0.125-1.539-0.188-2.428-0.188c-2.594,0-4.268,1.125-4.268,4.457c0,3.389,1.602,4.996,4.174,4.996
				c0.643,0,1.738-0.072,2.475-0.16c0.137,0,0.203-0.096,0.203-0.254V76.932z"/>
			<g>
				<path fill="#00A1E4" d="M510.437,80.514h-1.4c-0.125,0-0.189,0.092-0.189,0.201v1.838c0,3.852-2.779,5.414-6.037,5.414
					c-3.191,0-5.895-1.652-5.895-4.979c0-1.721,0.898-3.098,2.154-3.883c-0.596-0.658-1.33-1.648-1.33-3.096
					c0-2.822,2.754-3.922,5.441-3.922c1.219,0,2.311,0.16,3.324,0.299c0.139,0.043,0.201,0.115,0.201,0.227v1.336
					c0,0.115-0.039,0.205-0.201,0.205c-0.732-0.09-2.135-0.305-3.191-0.305c-1.951,0-3.117,0.787-3.117,2.279
					c0,1.947,1.328,2.568,3.262,2.568l6.926,0.021c0.189,0,0.232,0.068,0.232,0.225c0,0.256,0,1.387,0,1.387
					C510.616,80.445,510.556,80.514,510.437,80.514z M506.466,80.514c-2.922,0-3.693,0-5.996,0
					c-0.619,0.389-1.234,1.324-1.234,2.521c0,1.785,1.35,2.891,3.555,2.891c2.525,0,3.881-1.168,3.881-3.441v-1.77
					C506.669,80.578,506.599,80.514,506.466,80.514z"/>
				<path fill="#00A1E4" d="M372.37,111.568c0,0.141-0.119,0.207-0.23,0.207h-1.975c-0.135,0-0.209-0.094-0.209-0.232l-1.777-13.559
					h-0.42l-2.479,13.559c0,0.166-0.111,0.232-0.23,0.232h-3.805c-0.17,0-0.217-0.066-0.217-0.256l-2.518-13.535h-0.438
					l-1.818,13.535c0,0.162-0.088,0.256-0.209,0.256h-2.084c-0.119,0-0.207-0.094-0.207-0.207v-0.049l1.949-15.121
					c0.021-0.188,0.096-0.227,0.248-0.227h4.371c0.156,0,0.199,0.039,0.219,0.227l2.533,13.475h0.215l2.49-13.521
					c0-0.113,0.066-0.18,0.207-0.18h4.199c0.105,0,0.209,0.066,0.209,0.227l1.975,15.121V111.568L372.37,111.568z"/>
				<path fill="#00A1E4" d="M385.878,111.223c0,0.184-0.041,0.275-0.268,0.318c-1.754,0.191-4.293,0.459-5.557,0.459
					c-2.574,0-5.6-0.824-5.6-4.703c0-3.717,3.553-4.014,5.465-4.014c0.939,0,2.82,0.184,3.51,0.275c0-2.641-1.537-3.105-3.834-3.105
					c-1.219,0-2.344,0.098-3.193,0.172c-0.027,0-0.047,0-0.072,0c-0.137,0-0.205-0.074-0.227-0.189l-0.223-1.404v-0.02
					c0-0.115,0.09-0.186,0.223-0.186c1.168-0.156,2.826-0.271,3.861-0.271c3.559,0,5.914,1.102,5.914,4.656V111.223L385.878,111.223
					z M383.472,105.395c0-0.135-0.043-0.229-0.254-0.229h-3.096c-1.586,0-3.188,0.209-3.188,2.131c0,2.273,1.648,2.574,3.068,2.574
					h3.213c0.211,0,0.254-0.047,0.254-0.229v-4.248H383.472z"/>
				<path fill="#00A1E4" d="M391.821,96.285c0,0.158-0.043,0.229-0.201,0.229h-1.994c-0.117,0-0.213-0.068-0.213-0.25v-1.885
					c0-0.158,0.078-0.229,0.213-0.229h1.994c0.158,0,0.201,0.068,0.201,0.229V96.285z M391.62,111.775h-1.994
					c-0.135,0-0.213-0.066-0.213-0.232V98.896c0-0.133,0.078-0.227,0.238-0.227h1.955c0.172,0,0.215,0.068,0.215,0.207v12.664
					C391.821,111.707,391.778,111.775,391.62,111.775z"/>
				<path fill="#00A1E4" d="M406.835,111.775h-2.004c-0.158,0-0.191-0.043-0.191-0.232v-7.82c0-2.527-1.271-3.242-3.746-3.242
					c-0.779,0-1.926,0.096-2.66,0.168c-0.189,0-0.207,0.043-0.207,0.23v10.664c0,0.189-0.074,0.232-0.232,0.232h-1.998
					c-0.162,0-0.229-0.043-0.229-0.232V99.385c0-0.184,0.043-0.23,0.25-0.279c1.832-0.275,3.9-0.523,5.17-0.523
					c3.76,0,6.055,1.1,6.055,4.979v7.982C407.04,111.707,406.995,111.775,406.835,111.775z"/>
				<path fill="#00A1E4" d="M416.931,111.477c-0.051,0.135-0.115,0.184-0.277,0.205c-0.986,0.115-1.562,0.209-2.359,0.209
					c-2.188,0-3.148-0.969-3.148-3.285v-8.148c0-0.156-0.062-0.229-0.221-0.229h-1.568c-0.162,0-0.23-0.088-0.23-0.252v-1.1
					c0-0.139,0.068-0.207,0.23-0.207h1.59c0.137,0,0.199-0.064,0.199-0.229v-3.008c0-0.16,0.043-0.23,0.232-0.277l1.947-0.205
					c0.162,0,0.256,0.068,0.256,0.232v3.258c0,0.164,0.041,0.229,0.227,0.229h2.48c0.18,0,0.232,0.068,0.232,0.227v1.105
					c0,0.141-0.053,0.211-0.232,0.211h-2.48c-0.158,0-0.227,0.088-0.227,0.244v7.531c0,1.332,0.209,1.885,1.93,1.885
					c0.428,0,0.824,0,1.396,0c0.207,0,0.229,0.088,0.229,0.229L416.931,111.477z"/>
				<path fill="#00A1E4" d="M430.956,106.246h-9.604c-0.131,0-0.203,0.016-0.203,0.23c0.094,2.887,2.047,3.527,4.865,3.527
					c1.059,0,2.232-0.088,3.463-0.182c0.09,0,0.215,0.025,0.215,0.16c0,0.021,0,0.021,0,0.045l-0.215,1.4
					c-0.035,0.158-0.109,0.158-0.262,0.205c-1.137,0.162-2.51,0.301-3.986,0.301c-3.916,0-6.553-1.631-6.553-6.744
					c0-4.938,2.844-6.609,6.285-6.609c4.191,0,6.201,2.338,6.201,7.434C431.163,106.176,431.093,106.246,430.956,106.246z
					 M424.821,100.418c-2.244,0-3.697,1.236-3.697,3.783c0,0.188,0.049,0.229,0.207,0.229h7.121c0.16,0,0.248-0.023,0.248-0.209
					C428.636,101.654,427.112,100.418,424.821,100.418z"/>
				<path fill="#00A1E4" d="M445.251,111.775h-2.004c-0.162,0-0.203-0.043-0.203-0.232v-7.82c0-2.527-1.266-3.242-3.742-3.242
					c-0.779,0-1.928,0.096-2.654,0.168c-0.184,0-0.211,0.043-0.211,0.23v10.664c0,0.189-0.066,0.232-0.229,0.232h-2
					c-0.156,0-0.232-0.043-0.232-0.232V99.385c0-0.184,0.055-0.23,0.26-0.279c1.834-0.275,3.896-0.523,5.164-0.523
					c3.762,0,6.053,1.1,6.053,4.979v7.982C445.45,111.707,445.407,111.775,445.251,111.775z"/>
				<path fill="#00A1E4" d="M459.411,111.223c0,0.184-0.049,0.275-0.277,0.318c-1.75,0.191-4.295,0.459-5.549,0.459
					c-2.578,0-5.609-0.824-5.609-4.703c0-3.717,3.561-4.014,5.465-4.014c0.938,0,2.826,0.184,3.506,0.275
					c0-2.641-1.529-3.105-3.822-3.105c-1.219,0-2.342,0.098-3.195,0.172c-0.02,0-0.047,0-0.062,0c-0.139,0-0.209-0.074-0.236-0.189
					l-0.227-1.404v-0.02c0-0.115,0.092-0.186,0.227-0.186c1.172-0.156,2.828-0.271,3.859-0.271c3.551,0,5.924,1.102,5.924,4.656
					v8.012H459.411z M456.997,105.395c0-0.135-0.053-0.229-0.254-0.229h-3.096c-1.58,0-3.188,0.209-3.188,2.131
					c0,2.273,1.654,2.574,3.066,2.574h3.217c0.201,0,0.254-0.047,0.254-0.229V105.395L456.997,105.395z"/>
				<path fill="#00A1E4" d="M474.298,111.775h-2c-0.154,0-0.207-0.043-0.207-0.232v-7.82c0-2.527-1.26-3.242-3.732-3.242
					c-0.779,0-1.934,0.096-2.666,0.168c-0.186,0-0.203,0.043-0.203,0.23v10.664c0,0.189-0.068,0.232-0.23,0.232h-1.998
					c-0.16,0-0.227-0.043-0.227-0.232V99.385c0-0.184,0.045-0.23,0.258-0.279c1.832-0.275,3.898-0.523,5.156-0.523
					c3.76,0,6.057,1.1,6.057,4.979v7.982C474.503,111.707,474.454,111.775,474.298,111.775z"/>
				<path fill="#00A1E4" d="M487.538,111.66c-0.854,0.092-2.271,0.275-3.461,0.275c-4.293,0-6.934-2.086-6.934-6.84
					c0-4.91,3.482-6.564,6.904-6.564c1.041,0,2.529,0.141,3.396,0.258c0.168,0.021,0.23,0.062,0.23,0.244l-0.23,1.289
					c-0.02,0.135-0.064,0.23-0.203,0.23c-0.027,0-0.027,0-0.045,0c-0.875-0.072-1.744-0.096-2.805-0.096
					c-2.799,0-4.752,1.223-4.752,4.617c0,3.578,1.953,4.799,4.752,4.799c1.217,0,2.291-0.049,3.145-0.098c0.031,0,0.051,0,0.076,0
					c0.133,0,0.178,0.074,0.178,0.209v1.445C487.792,111.568,487.747,111.611,487.538,111.66z"/>
				<path fill="#00A1E4" d="M501.933,106.246h-9.604c-0.135,0-0.197,0.016-0.197,0.23c0.092,2.887,2.037,3.527,4.861,3.527
					c1.059,0,2.23-0.088,3.467-0.182c0.096,0,0.207,0.025,0.207,0.16c0,0.021,0,0.021,0,0.045l-0.207,1.4
					c-0.047,0.158-0.123,0.158-0.275,0.205c-1.125,0.162-2.506,0.301-3.973,0.301c-3.918,0-6.561-1.631-6.561-6.744
					c0-4.938,2.844-6.609,6.285-6.609c4.203,0,6.195,2.338,6.195,7.434C502.132,106.176,502.065,106.246,501.933,106.246z
					 M495.798,100.418c-2.244,0-3.688,1.236-3.688,3.783c0,0.188,0.045,0.229,0.205,0.229h7.115c0.156,0,0.244-0.023,0.244-0.209
					C499.604,101.654,498.101,100.418,495.798,100.418z"/>
			</g>
		</g>
	</g>
</g>
</svg>
