<?xml version="1.0" encoding="utf-8"?>
<!-- Generator: Adobe Illustrator 16.0.0, SVG Export Plug-In . SVG Version: 6.00 Build 0)  -->
<!DOCTYPE svg PUBLIC "-//W3C//DTD SVG 1.1//EN" "http://www.w3.org/Graphics/SVG/1.1/DTD/svg11.dtd">
<svg version="1.1" id="Layer_1" xmlns="http://www.w3.org/2000/svg" xmlns:xlink="http://www.w3.org/1999/xlink" x="0px" y="0px"
	 width="511px" height="112px" viewBox="0 0 511 112" enable-background="new 0 0 511 112" xml:space="preserve">
<g>
	<path fill="#010202" d="M398.5,72.2c0,0.2,0,0.2-0.199,0.2h-2c-0.102,0-0.201-0.101-0.201-0.2v-1.9c0-0.2,0.1-0.2,0.201-0.2h2
		c0.199,0,0.199,0.101,0.199,0.2V72.2z M398.301,87.7h-2c-0.102,0-0.201-0.101-0.201-0.2V74.8c0-0.1,0.1-0.2,0.201-0.2h2
		c0.199,0,0.199,0.101,0.199,0.2v12.7C398.5,87.6,398.5,87.7,398.301,87.7z"/>
	<path fill="#010202" d="M457,72.2c0,0.2,0,0.2-0.199,0.2h-2c-0.102,0-0.201-0.101-0.201-0.2v-1.9c0-0.2,0.1-0.2,0.201-0.2h2
		C457,70.1,457,70.2,457,70.3V72.2z"/>
	<g>
		<g>
			<g>
				<g>
					<g>
						<g>
							<path fill="#010202" d="M307.699,31.5l-14.6,21.1c-1.9,2.8-5,5.5-8.799,5.7V58.9H300.6c4.301,0,7.5-2.8,9.6-5.9l15-21.6
								h-17.5V31.5z"/>
						</g>
						<g>
							<path fill="#010202" d="M38.8,59.1V33.9h7.4v25.2H38.8L38.8,59.1z M208.4,59.1l-17.7-15v15h-6.2V33.9h5.3l17.4,14.7V33.9h6.2
								v25.2H208.4L208.4,59.1z M246.8,42c-3.3-1.6-7.1-3-12-3c-5.9,0-10.3,3.1-10.3,7.3c0,4.4,4.5,7.5,10.3,7.5
								c4.8,0,8.6-1.2,12.3-3.4v6.2c-3.3,1.601-7.7,2.9-12.6,2.9c-10.1,0-18-5.1-18-13.2c0-7.9,8.1-13,18-13c4.7,0,8.9,0.9,12.4,2.3
								V42H246.8z M87,59.1V33.9h24.6v5.4H94.4v6.3h16.8V51H94.4v8.1H87L87,59.1z M251.2,59.1V33.9h25.499v5.4h-18.1v4.4h17.9V49
								h-17.9v4.6h18.1V59H251.2V59.1z M137.2,49.6l10.2,9.5h-7.8c-1.7,0-2.9-0.5-3.8-1.399l-6.9-6.7c-0.1-0.1-0.3-0.2-0.6-0.2h-4.7
								v8.3h-7.4V33.9h15.9c8.3,0,11.7,3.7,11.7,7.8C143.8,46.5,139.5,48.8,137.2,49.6L137.2,49.6L137.2,49.6z M131.3,45.5
								c2.9,0,4.3-1.5,4.3-3.1c0-1.7-1.2-3-4.3-3h-7.8v6.2h7.8V45.5z M74,49.6l10.2,9.5h-7.8c-1.7,0-2.9-0.5-3.8-1.399l-7-6.8
								c-0.1-0.1-0.3-0.2-0.6-0.2h-4.7V59h-7.4V33.9h15.9c8.3,0,11.7,3.7,11.7,7.8C80.7,46.5,76.4,48.8,74,49.6L74,49.6L74,49.6z
								 M68.2,45.5c2.9,0,4.3-1.5,4.3-3.1c0-1.7-1.2-3-4.3-3h-7.8v6.2h7.8V45.5z M27.2,59.1L24,53.6H9.9L7,59.1H0l14-25.2h6.4
								l15.9,25.2H27.2L27.2,59.1z M12.7,48.3h8.2l-4.3-7.7L12.7,48.3L12.7,48.3z M174.1,59.1l-3.2-5.5h-13.7l-2.8,5.5h-6.8
								l13.7-25.2h6.2L183,59.1H174.1L174.1,59.1z M160,48.3h8l-4.2-7.7L160,48.3L160,48.3z"/>
						</g>
					</g>
				</g>
			</g>
			<g>
				<path fill="#010202" d="M0,95.7V72.1h4.3v23.5H0V95.7z"/>
				<path fill="#010202" d="M36.5,95.7L15.1,76.8v18.8h-3.3V72.1h3.9L37,90.6V72.1h3.2v23.5h-3.7V95.7z"/>
				<path fill="#010202" d="M47.7,95.7V72.1H62c8.7,0,15.3,3.9,15.3,11.5c0,7.2-6.7,12-15.3,12H47.7V95.7z M61.8,92.9
					c6,0,10.8-3.2,10.8-9.301c0-6.3-4.8-8.8-10.8-8.8H52v18h9.8V92.9z"/>
				<path fill="#010202" d="M107.4,72.1h4.3v12.4c0,7.3-5.2,11.6-15.1,11.6s-15.1-4.3-15.1-11.6V72.1h4.3v12.2
					c0,6.2,4.5,8.8,10.9,8.8c6,0,10.9-2.6,10.9-8.8V72.1H107.4z"/>
				<path fill="#010202" d="M124.2,84.7c-5-0.9-8.2-2.9-8.2-6.5c0-4,4.2-6.601,13.9-6.601c4.3,0,8.7,0.7,12.2,1.7l0.1,3.2
					c-3.9-1.3-8.3-2-12.3-2c-6.3,0-9.5,1.2-9.5,3.4c0,1.899,1.9,2.6,5.3,3.199l10.2,1.9c5,0.9,7.5,2.7,7.5,6.3c0,5-6,6.8-13.6,6.8
					c-4.5,0-10.1-0.899-13.2-1.899l0.1-3.3c3.3,1.199,8.3,2.3,12.8,2.3c7.3,0,9.6-1.4,9.6-3.5c0-1.5-0.9-2.3-5.1-3.101L124.2,84.7z"
					/>
				<path fill="#010202" d="M157.6,95.7V74.9h-13.1V72.1h30.4V74.9h-13.1v20.8H157.6z"/>
				<path fill="#010202" d="M202,95.7l-8-8.9h-10.2v8.9h-4.3V72.1H197c5.7,0,9.3,2.7,9.3,7.101c0,4-3.5,6.5-7.5,7.3l8.6,9.2H202z
					 M183.8,74.9V84.1h11.3c4.5,0,6.5-1.8,6.5-4.699c0-2.9-2.2-4.5-5.4-4.5H183.8z"/>
				<path fill="#010202" d="M211.4,95.7V72.1h4.3v23.5h-4.3V95.7z"/>
				<path fill="#010202" d="M223.2,95.7V72.1h23.6V74.9h-19.3v7.3h19V85h-19v7.9h19.3v2.8H223.2L223.2,95.7z"/>
				<path fill="#010202" d="M258.6,84.7c-5-0.9-8.2-2.9-8.2-6.5c0-4,4.2-6.601,13.901-6.601c4.299,0,8.699,0.7,12.199,1.7l0.1,3.2
					c-3.9-1.3-8.299-2-12.299-2c-6.301,0-9.5,1.2-9.5,3.4c0,1.899,1.899,2.6,5.299,3.199l10.201,1.9c5,0.9,7.5,2.7,7.5,6.3
					c0,5-6,6.8-13.602,6.8c-4.5,0-10.099-0.899-13.199-1.899l0.1-3.3c3.3,1.199,8.3,2.3,12.8,2.3c7.299,0,9.6-1.4,9.6-3.5
					c0-1.5-0.9-2.3-5.1-3.101L258.6,84.7z"/>
			</g>
		</g>
		<path fill="#010202" d="M402,9.5h3.1V6.3h3.1V3.2h-3.1V0H402v3.2h-3.1v3.1h3.1V9.5 M422.5,8.7c-3,0-5.5,2.5-5.5,5.5
			s2.5,5.5,5.5,5.5s5.5-2.5,5.5-5.5C428,11.1,425.5,8.7,422.5,8.7z M384.699,21.3v6.3H422.4v-6.3H384.699z M390.199,14.2
			c0-3-2.5-5.5-5.5-5.5s-5.5,2.5-5.5,5.5s2.5,5.5,5.5,5.5C387.801,19.7,390.199,17.2,390.199,14.2z M404.4,14.2c0,3,2.5,5.5,5.5,5.5
			s5.5-2.5,5.5-5.5s-2.5-5.5-5.5-5.5C406.801,8.7,404.4,11.1,404.4,14.2z M397.301,19.7c3,0,5.5-2.5,5.5-5.5s-2.5-5.5-5.5-5.5
			s-5.5,2.5-5.5,5.5S394.301,19.7,397.301,19.7z M438.199,33.9L433.5,48l-4.699-14.2H413.1V59h9.4V40.2l6.301,18.899h9.398
			L444.5,40.2V59.1h9.4V33.9H438.199z M394.199,33.9h-9.398v25.2h25.1V52.7h-15.701V33.9z M381.6,33.9h-9.4l-9.398,9.4v-9.4h-9.4
			v25.2h9.4v-9.5l9.398,9.5h12.602L370.6,44.9L381.6,33.9z"/>
		<g>
			<path fill="#010202" d="M363.9,87.5c0,0.2-0.1,0.2-0.201,0.2H353.5c-0.1,0-0.199-0.101-0.199-0.3v-15
				c0-0.2,0.1-0.301,0.199-0.301h10c0.199,0,0.301,0.101,0.301,0.301v1.3c0,0.1,0,0.3-0.301,0.3h-7.6c-0.201,0-0.201,0.1-0.201,0.2
				V78.6c0,0.101,0.102,0.2,0.201,0.2h5.5c0.199,0,0.199,0.101,0.199,0.2v1.3c0,0.101-0.1,0.2-0.199,0.2h-5.5
				c-0.201,0-0.201,0.1-0.201,0.2v4.8c0,0.2,0.102,0.2,0.201,0.2h8c0.1,0,0.199,0.1,0.199,0.2L363.9,87.5z"/>
			<path fill="#010202" d="M377.9,87.7h-2c-0.201,0-0.201,0-0.201-0.2v-7.8c0-2.5-1.299-3.2-3.699-3.2c-0.801,0-1.9,0.1-2.699,0.2
				c-0.201,0-0.201,0-0.201,0.2V87.6c0,0.2-0.1,0.2-0.199,0.2h-2c-0.201,0-0.201,0-0.201-0.2V75.3c0-0.2,0-0.2,0.301-0.3
				c1.799-0.3,3.9-0.5,5.199-0.5c3.801,0,6.1,1.1,6.1,5v8C378.1,87.6,378,87.7,377.9,87.7z"/>
			<path fill="#010202" d="M392.5,84.2c0,3.5-0.801,5.8-2.699,7.7c-0.102,0.1-0.201,0.199-0.4,0.199h-2
				c-0.1,0-0.201-0.1-0.201-0.199c0,0,0-0.101,0.102-0.101c0.6-0.6,2.299-2.6,2.398-4c0-0.1,0-0.2-0.199-0.2c0,0,0,0-0.1,0
				c-0.701,0.101-1.701,0.2-2.4,0.2c-3.4,0-6.4-1.899-6.4-6.899c0-4.9,3.301-6.4,6.801-6.4c1.5,0,3.199,0.2,4.799,0.5
				c0.102,0,0.201,0.1,0.201,0.3v8.9H392.5z M390.1,76.9c0-0.101,0-0.2-0.199-0.2c-0.6-0.101-1.5-0.2-2.4-0.2
				c-2.6,0-4.301,1.1-4.301,4.5s1.602,5,4.201,5c0.6,0,1.699-0.1,2.5-0.2c0.1,0,0.199-0.1,0.199-0.3V76.9L390.1,76.9z"/>
			<path fill="#010202" d="M413.5,87.7h-2c-0.199,0-0.199,0-0.199-0.2v-7.8c0-2.5-1.301-3.2-3.701-3.2c-0.799,0-1.9,0.1-2.699,0.2
				c-0.201,0-0.201,0-0.201,0.2V87.6c0,0.2-0.1,0.2-0.199,0.2h-2c-0.199,0-0.199,0-0.199-0.2V75.3c0-0.2,0-0.2,0.199-0.3
				c1.801-0.3,3.9-0.5,5.199-0.5c3.801,0,6.102,1.1,6.102,5v8C413.699,87.6,413.699,87.7,413.5,87.7z"/>
			<path fill="#010202" d="M428.801,82.2h-9.602c-0.1,0-0.199,0-0.199,0.2c0.1,2.899,2,3.5,4.9,3.5c1.1,0,2.199-0.101,3.5-0.2
				c0.1,0,0.199,0,0.199,0.2l0,0L427.4,87.3c0,0.2-0.1,0.2-0.301,0.2c-1.1,0.2-2.5,0.3-4,0.3c-3.9,0-6.6-1.6-6.6-6.7
				c0-4.899,2.801-6.6,6.301-6.6C427,74.5,429,76.8,429,81.9C429,82.1,428.9,82.2,428.801,82.2z M422.6,76.4
				c-2.299,0-3.699,1.199-3.699,3.8c0,0.2,0,0.2,0.199,0.2h7.1c0.201,0,0.201,0,0.201-0.2C426.4,77.6,424.9,76.4,422.6,76.4z"/>
			<path fill="#010202" d="M443.5,82.2h-9.6c-0.1,0-0.201,0-0.201,0.2c0.102,2.899,2,3.5,4.9,3.5c1.1,0,2.201-0.101,3.5-0.2
				c0.1,0,0.201,0,0.201,0.2l0,0L442.1,87.3c-0.1,0.2-0.1,0.2-0.299,0.2c-1.102,0.2-2.5,0.3-4,0.3c-3.9,0-6.602-1.6-6.602-6.7
				c0-4.899,2.801-6.6,6.301-6.6c4.199,0,6.199,2.3,6.199,7.4C443.699,82.1,443.6,82.2,443.5,82.2z M437.4,76.4
				c-2.301,0-3.701,1.199-3.701,3.8c0,0.2,0,0.2,0.201,0.2h7.1c0.199,0,0.301,0,0.301-0.2C441.199,77.6,439.699,76.4,437.4,76.4z"/>
			<path fill="#010202" d="M452,76.4c-1,0-1.801,0.1-2.801,0.1c-0.199,0-0.299,0.1-0.299,0.2v10.7c0,0.199,0,0.199-0.201,0.199h-2
				c-0.1,0-0.199-0.1-0.199-0.199V75.3c0-0.2,0.1-0.3,0.199-0.3c1.602-0.2,3.301-0.5,5.201-0.5c0.1,0,0.199,0.1,0.199,0.2v1.5
				C452.199,76.4,452.1,76.4,452,76.4z"/>
			<path fill="#010202" d="M456.801,87.7h-2c-0.102,0-0.201-0.101-0.201-0.2V74.8c0-0.1,0.1-0.2,0.201-0.2h2
				C457,74.6,457,74.7,457,74.8v12.7C457,87.6,457,87.7,456.801,87.7z"/>
			<path fill="#010202" d="M472,87.7h-2c-0.199,0-0.199,0-0.199-0.2v-7.8c0-2.5-1.301-3.2-3.701-3.2c-0.799,0-1.9,0.1-2.699,0.2
				c-0.201,0-0.201,0-0.201,0.2V87.6c0,0.2-0.1,0.2-0.199,0.2h-2c-0.199,0-0.199,0-0.199-0.2V75.3c0-0.2,0-0.2,0.299-0.3
				c1.801-0.3,3.9-0.5,5.201-0.5c3.799,0,6.1,1.1,6.1,5v8C472.199,87.6,472.199,87.7,472,87.7z"/>
			<path fill="#010202" d="M486.699,84.2c0,3.5-0.799,5.8-2.699,7.7c-0.1,0.1-0.199,0.199-0.4,0.199h-2
				c-0.1,0-0.199-0.1-0.199-0.199c0,0,0-0.101,0.1-0.101c0.6-0.6,2.301-2.6,2.5-4c0-0.1,0-0.2-0.199-0.2c0,0,0,0-0.102,0
				c-0.699,0.101-1.6,0.2-2.398,0.2c-3.4,0-6.4-1.899-6.4-6.899c0-4.9,3.299-6.4,6.799-6.4c1.5,0,3.201,0.2,4.801,0.5
				c0.1,0,0.199,0.1,0.199,0.3V84.2L486.699,84.2z M484.199,76.9c0-0.101,0-0.2-0.199-0.2c-0.6-0.101-1.5-0.2-2.4-0.2
				c-2.6,0-4.299,1.1-4.299,4.5s1.6,5,4.199,5c0.6,0,1.699-0.1,2.5-0.2c0.1,0,0.199-0.1,0.199-0.3V76.9L484.199,76.9z"/>
			<g>
				<path fill="#010202" d="M510.4,80.4H509c-0.1,0-0.199,0.1-0.199,0.199V82.4c0,3.899-2.801,5.399-6,5.399c-3.201,0-5.9-1.7-5.9-5
					c0-1.7,0.9-3.1,2.199-3.899c-0.6-0.7-1.299-1.601-1.299-3.101c0-2.8,2.799-3.899,5.398-3.899c1.201,0,2.301,0.199,3.301,0.3
					c0.1,0,0.199,0.1,0.199,0.2v1.3c0,0.1,0,0.2-0.199,0.2c-0.699-0.101-2.1-0.301-3.199-0.301c-2,0-3.102,0.801-3.102,2.301
					c0,1.899,1.301,2.6,3.301,2.6h6.9c0.199,0,0.199,0.1,0.199,0.2c0,0.3,0,1.399,0,1.399C510.6,80.4,510.5,80.4,510.4,80.4z
					 M506.4,80.4c-2.9,0-3.701,0-6,0c-0.6,0.399-1.201,1.3-1.201,2.5c0,1.8,1.301,2.899,3.602,2.899c2.5,0,3.898-1.2,3.898-3.399
					V80.6C506.699,80.5,506.6,80.4,506.4,80.4z"/>
				<path fill="#010202" d="M372.4,111.5c0,0.1-0.1,0.2-0.201,0.2h-2c-0.1,0-0.199-0.101-0.199-0.2l-1.801-13.6h-0.398l-2.5,13.6
					c0,0.2-0.102,0.2-0.201,0.2h-3.799c-0.201,0-0.201-0.101-0.201-0.3l-2.5-13.5h-0.4l-1.799,13.5c0,0.199-0.1,0.3-0.201,0.3h-2.1
					c-0.1,0-0.199-0.101-0.199-0.2l0,0l1.9-15.1c0-0.2,0.1-0.2,0.199-0.2h4.4c0.199,0,0.199,0,0.199,0.2l2.5,13.5h0.201l2.5-13.5
					c0-0.101,0.1-0.2,0.199-0.2h4.199c0.102,0,0.201,0.1,0.201,0.2L372.4,111.5L372.4,111.5z"/>
				<path fill="#010202" d="M385.9,111.1c0,0.2,0,0.301-0.301,0.301c-1.799,0.199-4.299,0.5-5.6,0.5c-2.6,0-5.6-0.801-5.6-4.7
					c0-3.7,3.6-4,5.5-4c0.9,0,2.799,0.2,3.5,0.3c0-2.6-1.5-3.1-3.801-3.1c-1.199,0-2.299,0.1-3.199,0.199c0,0,0,0-0.1,0
					c-0.102,0-0.201-0.1-0.201-0.199L375.9,99l0,0c0-0.1,0.1-0.2,0.199-0.2c1.201-0.2,2.801-0.3,3.9-0.3c3.6,0,5.9,1.1,5.9,4.7
					V111.1L385.9,111.1z M383.5,105.3c0-0.1,0-0.2-0.301-0.2h-3.1c-1.6,0-3.199,0.2-3.199,2.101c0,2.3,1.699,2.6,3.1,2.6h3.199
					c0.201,0,0.301,0,0.301-0.2V105.3z"/>
				<path fill="#010202" d="M391.801,96.2c0,0.2,0,0.2-0.201,0.2h-2c-0.1,0-0.199-0.101-0.199-0.2v-1.9c0-0.2,0.1-0.2,0.199-0.2h2
					c0.201,0,0.201,0.101,0.201,0.2V96.2z M391.6,111.7h-2c-0.1,0-0.199-0.101-0.199-0.2V98.8c0-0.1,0.1-0.2,0.199-0.2h2
					c0.201,0,0.201,0.101,0.201,0.2v12.7C391.801,111.6,391.801,111.7,391.6,111.7z"/>
				<path fill="#010202" d="M406.801,111.7h-2c-0.201,0-0.201,0-0.201-0.2v-7.8c0-2.5-1.299-3.2-3.699-3.2
					c-0.801,0-1.9,0.1-2.701,0.2c-0.199,0-0.199,0-0.199,0.2V111.6c0,0.2-0.1,0.2-0.199,0.2h-2c-0.201,0-0.201,0-0.201-0.2V99.3
					c0-0.2,0-0.2,0.301-0.3c1.799-0.3,3.9-0.5,5.199-0.5c3.801,0,6.1,1.1,6.1,5v8C407,111.6,407,111.7,406.801,111.7z"/>
				<path fill="#010202" d="M416.9,111.4c-0.1,0.1-0.1,0.199-0.301,0.199c-1,0.101-1.6,0.2-2.4,0.2c-2.199,0-3.1-1-3.1-3.3v-8.2
					c0-0.2-0.1-0.2-0.199-0.2h-1.6c-0.201,0-0.201-0.1-0.201-0.3v-1.1c0-0.101,0.1-0.2,0.201-0.2h1.6c0.1,0,0.199-0.1,0.199-0.2v-3
					c0-0.2,0-0.2,0.201-0.3l1.898-0.2c0.201,0,0.301,0.101,0.301,0.2v3.3c0,0.2,0,0.2,0.199,0.2h2.5c0.201,0,0.201,0.1,0.201,0.2
					v1.1c0,0.101-0.1,0.2-0.201,0.2h-2.5c-0.199,0-0.199,0.1-0.199,0.2v7.5c0,1.3,0.199,1.899,1.9,1.899c0.4,0,0.799,0,1.4,0
					c0.199,0,0.199,0.101,0.199,0.2L416.9,111.4z"/>
				<path fill="#010202" d="M430.9,106.2h-9.6c-0.102,0-0.201,0-0.201,0.2c0.1,2.899,2,3.5,4.9,3.5c1.1,0,2.199-0.101,3.5-0.2
					c0.1,0,0.199,0,0.199,0.2l0,0L429.5,111.3c0,0.2-0.1,0.2-0.301,0.2c-1.1,0.2-2.5,0.3-4,0.3c-3.898,0-6.6-1.6-6.6-6.7
					c0-4.899,2.801-6.6,6.301-6.6c4.199,0,6.199,2.3,6.199,7.4C431.1,106.1,431.1,106.2,430.9,106.2z M424.801,100.3
					c-2.201,0-3.701,1.2-3.701,3.8c0,0.2,0,0.2,0.201,0.2h7.1c0.199,0,0.199,0,0.199-0.2C428.6,101.6,427.1,100.3,424.801,100.3z"/>
				<path fill="#010202" d="M445.199,111.7h-2c-0.199,0-0.199,0-0.199-0.2v-7.8c0-2.5-1.301-3.2-3.699-3.2
					c-0.801,0-1.9,0.1-2.701,0.2c-0.199,0-0.199,0-0.199,0.2V111.6c0,0.2-0.1,0.2-0.201,0.2h-2c-0.199,0-0.199,0-0.199-0.2V99.3
					c0-0.2,0.1-0.2,0.301-0.3c1.799-0.3,3.898-0.5,5.199-0.5c3.801,0,6.1,1.1,6.1,5v8C445.4,111.6,445.4,111.7,445.199,111.7z"/>
				<path fill="#010202" d="M459.4,111.1c0,0.2,0,0.301-0.301,0.301c-1.799,0.199-4.299,0.5-5.5,0.5c-2.6,0-5.6-0.801-5.6-4.7
					c0-3.7,3.6-4,5.5-4c0.9,0,2.801,0.2,3.5,0.3c0-2.6-1.5-3.1-3.801-3.1c-1.199,0-2.299,0.1-3.199,0.199c0,0,0,0-0.1,0
					s-0.201-0.1-0.201-0.199L449.5,99l0,0c0-0.1,0.1-0.2,0.199-0.2c1.201-0.2,2.801-0.3,3.9-0.3c3.5,0,5.9,1.1,5.9,4.7v7.899H459.4z
					 M457,105.3c0-0.1-0.1-0.2-0.301-0.2h-3.1c-1.6,0-3.199,0.2-3.199,2.101c0,2.3,1.699,2.6,3.1,2.6h3.199
					c0.201,0,0.301,0,0.301-0.2V105.3z"/>
				<path fill="#010202" d="M474.301,111.7h-2c-0.201,0-0.201,0-0.201-0.2v-7.8c0-2.5-1.299-3.2-3.699-3.2
					c-0.801,0-1.9,0.1-2.701,0.2c-0.199,0-0.199,0-0.199,0.2V111.6c0,0.2-0.1,0.2-0.199,0.2h-2c-0.201,0-0.201,0-0.201-0.2V99.3
					c0-0.2,0-0.2,0.301-0.3c1.799-0.3,3.9-0.5,5.199-0.5c3.801,0,6.1,1.1,6.1,5v8C474.5,111.6,474.4,111.7,474.301,111.7z"/>
				<path fill="#010202" d="M487.5,111.6c-0.9,0.101-2.301,0.301-3.5,0.301c-4.301,0-6.9-2.101-6.9-6.801c0-4.899,3.5-6.6,6.9-6.6
					c1,0,2.5,0.1,3.4,0.3c0.199,0,0.199,0.101,0.199,0.2l-0.199,1.3c0,0.101-0.1,0.2-0.201,0.2l0,0c-0.898-0.1-1.699-0.1-2.799-0.1
					c-2.801,0-4.801,1.199-4.801,4.6c0,3.6,2,4.8,4.801,4.8c1.199,0,2.299,0,3.1-0.1c0,0,0,0,0.1,0s0.201,0.1,0.201,0.2v1.399
					C487.801,111.5,487.699,111.5,487.5,111.6z"/>
				<path fill="#010202" d="M501.9,106.2h-9.6c-0.102,0-0.201,0-0.201,0.2c0.1,2.899,2,3.5,4.9,3.5c1.1,0,2.199-0.101,3.5-0.2
					c0.1,0,0.199,0,0.199,0.2l0,0L500.5,111.3c0,0.2-0.1,0.2-0.301,0.2c-1.1,0.2-2.5,0.3-4,0.3c-3.898,0-6.6-1.6-6.6-6.7
					c0-4.899,2.801-6.6,6.301-6.6c4.199,0,6.199,2.3,6.199,7.4C502.1,106.1,502,106.2,501.9,106.2z M495.801,100.3
					c-2.201,0-3.701,1.2-3.701,3.8c0,0.2,0,0.2,0.201,0.2h7.1c0.199,0,0.199,0,0.199-0.2C499.6,101.6,498.1,100.3,495.801,100.3z"/>
			</g>
		</g>
	</g>
</g>
</svg>
