<?xml version="1.0" encoding="utf-8"?>
<!-- Generator: Adobe Illustrator 16.0.0, SVG Export Plug-In . SVG Version: 6.00 Build 0)  -->
<!DOCTYPE svg PUBLIC "-//W3C//DTD SVG 1.1//EN" "http://www.w3.org/Graphics/SVG/1.1/DTD/svg11.dtd">
<svg version="1.1" id="Layer_1" xmlns="http://www.w3.org/2000/svg" xmlns:xlink="http://www.w3.org/1999/xlink" x="0px" y="0px"
	 width="511px" height="112px" viewBox="0 0 511 112" enable-background="new 0 0 511 112" xml:space="preserve">
<g>
	<path fill="#FFFFFF" d="M398.9,72.2c0,0.2,0,0.2-0.2,0.2h-2c-0.1,0-0.2-0.1-0.2-0.2v-1.9c0-0.2,0.1-0.2,0.2-0.2h2
		c0.2,0,0.2,0.1,0.2,0.2V72.2z M398.7,87.7h-2c-0.1,0-0.2-0.1-0.2-0.2V74.8c0-0.1,0.1-0.2,0.2-0.2h2c0.2,0,0.2,0.1,0.2,0.2v12.7
		C398.9,87.6,398.9,87.7,398.7,87.7z"/>
	<path fill="#FFFFFF" d="M457.4,72.2c0,0.2,0,0.2-0.2,0.2h-2c-0.1,0-0.2-0.1-0.2-0.2v-1.9c0-0.2,0.1-0.2,0.2-0.2h2
		c0.2,0,0.2,0.1,0.2,0.2V72.2z"/>
	<g>
		<g>
			<g>
				<g>
					<g>
						<g>
							<path fill="#FFFFFF" d="M308.1,31.5l-14.6,21.1c-1.9,2.8-5,5.5-8.8,5.7v0.6H301c4.3,0,7.5-2.8,9.6-5.9l15-21.6H308.1
								L308.1,31.5z"/>
						</g>
						<g>
							<path fill="#FFFFFF" d="M39.2,59.1V33.9h7.4v25.2H39.2L39.2,59.1z M208.8,59.1l-17.7-15v15h-6.2V33.9h5.3l17.4,14.7V33.9h6.2
								v25.2H208.8L208.8,59.1z M247.2,42c-3.3-1.6-7.1-3-12-3c-5.9,0-10.3,3.1-10.3,7.3c0,4.4,4.5,7.5,10.3,7.5
								c4.8,0,8.6-1.2,12.3-3.4v6.2c-3.3,1.6-7.7,2.9-12.6,2.9c-10.1,0-18-5.1-18-13.2c0-7.9,8.1-13,18-13c4.7,0,8.9,0.9,12.4,2.3
								V42L247.2,42z M87.4,59.1V33.9H112v5.4H94.8v6.3h16.8v5.4H94.8v8.1H87.4L87.4,59.1z M251.6,59.1V33.9h25.5v5.4H259v4.4h17.9
								V49H259v4.6h18.1v5.4H251.6L251.6,59.1z M137.6,49.6l10.2,9.5h-7.8c-1.7,0-2.9-0.5-3.8-1.4l-6.9-6.7
								c-0.1-0.1-0.3-0.2-0.6-0.2h-4.7v8.3h-7.4V33.9h15.9c8.3,0,11.7,3.7,11.7,7.8C144.2,46.5,139.9,48.8,137.6,49.6L137.6,49.6
								L137.6,49.6z M131.7,45.5c2.9,0,4.3-1.5,4.3-3.1c0-1.7-1.2-3-4.3-3h-7.8v6.2H131.7L131.7,45.5z M74.4,49.6l10.2,9.5h-7.8
								c-1.7,0-2.9-0.5-3.8-1.4L66,50.9c-0.1-0.1-0.3-0.2-0.6-0.2h-4.7v8.3h-7.4V33.9h15.9c8.3,0,11.7,3.7,11.7,7.8
								C81.1,46.5,76.8,48.8,74.4,49.6L74.4,49.6L74.4,49.6z M68.6,45.5c2.9,0,4.3-1.5,4.3-3.1c0-1.7-1.2-3-4.3-3h-7.8v6.2H68.6
								L68.6,45.5z M27.6,59.1l-3.2-5.5H10.3l-2.9,5.5h-7l14-25.2h6.4l15.9,25.2H27.6L27.6,59.1z M13.1,48.3h8.2l-4.3-7.7L13.1,48.3
								L13.1,48.3z M174.5,59.1l-3.2-5.5h-13.7l-2.8,5.5h-6.8l13.7-25.2h6.2l15.5,25.2H174.5L174.5,59.1z M160.4,48.3h8l-4.2-7.7
								L160.4,48.3L160.4,48.3z"/>
						</g>
					</g>
				</g>
			</g>
			<g>
				<path fill="#FFFFFF" d="M0.4,95.7V72.1h4.3v23.5H0.4z"/>
				<path fill="#FFFFFF" d="M36.9,95.7L15.5,76.8v18.8h-3.3V72.1h3.9l21.3,18.5V72.1h3.2v23.5H36.9z"/>
				<path fill="#FFFFFF" d="M48.1,95.7V72.1h14.3c8.7,0,15.3,3.9,15.3,11.5c0,7.2-6.7,12-15.3,12H48.1z M62.2,92.9
					c6,0,10.8-3.2,10.8-9.3c0-6.3-4.8-8.8-10.8-8.8h-9.8v18H62.2z"/>
				<path fill="#FFFFFF" d="M107.8,72.1h4.3v12.4c0,7.3-5.2,11.6-15.1,11.6s-15.1-4.3-15.1-11.6V72.1h4.3v12.2
					c0,6.2,4.5,8.8,10.9,8.8c6,0,10.9-2.6,10.9-8.8V72.1z"/>
				<path fill="#FFFFFF" d="M124.6,84.7c-5-0.9-8.2-2.9-8.2-6.5c0-4,4.2-6.6,13.9-6.6c4.3,0,8.7,0.7,12.2,1.7l0.1,3.2
					c-3.9-1.3-8.3-2-12.3-2c-6.3,0-9.5,1.2-9.5,3.4c0,1.9,1.9,2.6,5.3,3.2l10.2,1.9c5,0.9,7.5,2.7,7.5,6.3c0,5-6,6.8-13.6,6.8
					c-4.5,0-10.1-0.9-13.2-1.9l0.1-3.3c3.3,1.2,8.3,2.3,12.8,2.3c7.3,0,9.6-1.4,9.6-3.5c0-1.5-0.9-2.3-5.1-3.1L124.6,84.7z"/>
				<path fill="#FFFFFF" d="M158,95.7V74.9h-13.1v-2.8h30.4v2.8h-13.1v20.8H158z"/>
				<path fill="#FFFFFF" d="M202.4,95.7l-8-8.9h-10.2v8.9h-4.3V72.1h17.5c5.7,0,9.3,2.7,9.3,7.1c0,4-3.5,6.5-7.5,7.3l8.6,9.2H202.4z
					 M184.2,74.9v9.2h11.3c4.5,0,6.5-1.8,6.5-4.7c0-2.9-2.2-4.5-5.4-4.5H184.2z"/>
				<path fill="#FFFFFF" d="M211.8,95.7V72.1h4.3v23.5H211.8z"/>
				<path fill="#FFFFFF" d="M223.6,95.7V72.1h23.6v2.8h-19.3v7.3h19V85h-19v7.9h19.3v2.8H223.6z"/>
				<path fill="#FFFFFF" d="M259,84.7c-5-0.9-8.2-2.9-8.2-6.5c0-4,4.2-6.6,13.9-6.6c4.3,0,8.7,0.7,12.2,1.7l0.1,3.2
					c-3.9-1.3-8.3-2-12.3-2c-6.3,0-9.5,1.2-9.5,3.4c0,1.9,1.9,2.6,5.3,3.2l10.2,1.9c5,0.9,7.5,2.7,7.5,6.3c0,5-6,6.8-13.6,6.8
					c-4.5,0-10.1-0.9-13.2-1.9l0.1-3.3c3.3,1.2,8.3,2.3,12.8,2.3c7.3,0,9.6-1.4,9.6-3.5c0-1.5-0.9-2.3-5.1-3.1L259,84.7z"/>
			</g>
		</g>
		<path fill="#FFFFFF" d="M402.4,9.5h3.1V6.3h3.1V3.2h-3.1V0h-3.1v3.2h-3.1v3.1h3.1V9.5 M422.9,8.7c-3,0-5.5,2.5-5.5,5.5
			c0,3,2.5,5.5,5.5,5.5s5.5-2.5,5.5-5.5C428.4,11.1,425.9,8.7,422.9,8.7z M385.1,21.3v6.3h37.7v-6.3H385.1z M390.6,14.2
			c0-3-2.5-5.5-5.5-5.5c-3,0-5.5,2.5-5.5,5.5c0,3,2.5,5.5,5.5,5.5C388.2,19.7,390.6,17.2,390.6,14.2z M404.8,14.2
			c0,3,2.5,5.5,5.5,5.5c3,0,5.5-2.5,5.5-5.5c0-3-2.5-5.5-5.5-5.5C407.2,8.7,404.8,11.1,404.8,14.2z M397.7,19.7c3,0,5.5-2.5,5.5-5.5
			c0-3-2.5-5.5-5.5-5.5c-3,0-5.5,2.5-5.5,5.5C392.2,17.2,394.7,19.7,397.7,19.7z M438.6,33.9L433.9,48l-4.7-14.2h-15.7v25.2h9.4
			V40.2l6.3,18.9h9.4l6.3-18.9v18.9h9.4V33.9H438.6z M394.6,33.9h-9.4v25.2h25.1v-6.4h-15.7V33.9z M382,33.9h-9.4l-9.4,9.4v-9.4
			h-9.4v25.2h9.4v-9.5l9.4,9.5h12.6L371,44.9L382,33.9z"/>
		<g>
			<path fill="#FFFFFF" d="M364.3,87.5c0,0.2-0.1,0.2-0.2,0.2h-10.2c-0.1,0-0.2-0.1-0.2-0.3V72.4c0-0.2,0.1-0.3,0.2-0.3h10
				c0.2,0,0.3,0.1,0.3,0.3v1.3c0,0.1,0,0.3-0.3,0.3h-7.6c-0.2,0-0.2,0.1-0.2,0.2v4.4c0,0.1,0.1,0.2,0.2,0.2h5.5
				c0.2,0,0.2,0.1,0.2,0.2v1.3c0,0.1-0.1,0.2-0.2,0.2h-5.5c-0.2,0-0.2,0.1-0.2,0.2v4.8c0,0.2,0.1,0.2,0.2,0.2h8
				c0.1,0,0.2,0.1,0.2,0.2L364.3,87.5z"/>
			<path fill="#FFFFFF" d="M378.3,87.7h-2c-0.2,0-0.2,0-0.2-0.2v-7.8c0-2.5-1.3-3.2-3.7-3.2c-0.8,0-1.9,0.1-2.7,0.2
				c-0.2,0-0.2,0-0.2,0.2v10.7c0,0.2-0.1,0.2-0.2,0.2h-2c-0.2,0-0.2,0-0.2-0.2V75.3c0-0.2,0-0.2,0.3-0.3c1.8-0.3,3.9-0.5,5.2-0.5
				c3.8,0,6.1,1.1,6.1,5v8C378.5,87.6,378.4,87.7,378.3,87.7z"/>
			<path fill="#FFFFFF" d="M392.9,84.2c0,3.5-0.8,5.8-2.7,7.7c-0.1,0.1-0.2,0.2-0.4,0.2h-2c-0.1,0-0.2-0.1-0.2-0.2
				c0,0,0-0.1,0.1-0.1c0.6-0.6,2.3-2.6,2.4-4c0-0.1,0-0.2-0.2-0.2c0,0,0,0-0.1,0c-0.7,0.1-1.7,0.2-2.4,0.2c-3.4,0-6.4-1.9-6.4-6.9
				c0-4.9,3.3-6.4,6.8-6.4c1.5,0,3.2,0.2,4.8,0.5c0.1,0,0.2,0.1,0.2,0.3V84.2z M390.5,76.9c0-0.1,0-0.2-0.2-0.2
				c-0.6-0.1-1.5-0.2-2.4-0.2c-2.6,0-4.3,1.1-4.3,4.5c0,3.4,1.6,5,4.2,5c0.6,0,1.7-0.1,2.5-0.2c0.1,0,0.2-0.1,0.2-0.3V76.9z"/>
			<path fill="#FFFFFF" d="M413.9,87.7h-2c-0.2,0-0.2,0-0.2-0.2v-7.8c0-2.5-1.3-3.2-3.7-3.2c-0.8,0-1.9,0.1-2.7,0.2
				c-0.2,0-0.2,0-0.2,0.2v10.7c0,0.2-0.1,0.2-0.2,0.2h-2c-0.2,0-0.2,0-0.2-0.2V75.3c0-0.2,0-0.2,0.2-0.3c1.8-0.3,3.9-0.5,5.2-0.5
				c3.8,0,6.1,1.1,6.1,5v8C414.1,87.6,414.1,87.7,413.9,87.7z"/>
			<path fill="#FFFFFF" d="M429.2,82.2h-9.6c-0.1,0-0.2,0-0.2,0.2c0.1,2.9,2,3.5,4.9,3.5c1.1,0,2.2-0.1,3.5-0.2c0.1,0,0.2,0,0.2,0.2
				c0,0,0,0,0,0l-0.2,1.4c0,0.2-0.1,0.2-0.3,0.2c-1.1,0.2-2.5,0.3-4,0.3c-3.9,0-6.6-1.6-6.6-6.7c0-4.9,2.8-6.6,6.3-6.6
				c4.2,0,6.2,2.3,6.2,7.4C429.4,82.1,429.3,82.2,429.2,82.2z M423,76.4c-2.3,0-3.7,1.2-3.7,3.8c0,0.2,0,0.2,0.2,0.2h7.1
				c0.2,0,0.2,0,0.2-0.2C426.8,77.6,425.3,76.4,423,76.4z"/>
			<path fill="#FFFFFF" d="M443.9,82.2h-9.6c-0.1,0-0.2,0-0.2,0.2c0.1,2.9,2,3.5,4.9,3.5c1.1,0,2.2-0.1,3.5-0.2c0.1,0,0.2,0,0.2,0.2
				c0,0,0,0,0,0l-0.2,1.4c-0.1,0.2-0.1,0.2-0.3,0.2c-1.1,0.2-2.5,0.3-4,0.3c-3.9,0-6.6-1.6-6.6-6.7c0-4.9,2.8-6.6,6.3-6.6
				c4.2,0,6.2,2.3,6.2,7.4C444.1,82.1,444,82.2,443.9,82.2z M437.8,76.4c-2.3,0-3.7,1.2-3.7,3.8c0,0.2,0,0.2,0.2,0.2h7.1
				c0.2,0,0.3,0,0.3-0.2C441.6,77.6,440.1,76.4,437.8,76.4z"/>
			<path fill="#FFFFFF" d="M452.4,76.4c-1,0-1.8,0.1-2.8,0.1c-0.2,0-0.3,0.1-0.3,0.2v10.7c0,0.2,0,0.2-0.2,0.2h-2
				c-0.1,0-0.2-0.1-0.2-0.2V75.3c0-0.2,0.1-0.3,0.2-0.3c1.6-0.2,3.3-0.5,5.2-0.5c0.1,0,0.2,0.1,0.2,0.2v1.5
				C452.6,76.4,452.5,76.4,452.4,76.4z"/>
			<path fill="#FFFFFF" d="M457.2,87.7h-2c-0.1,0-0.2-0.1-0.2-0.2V74.8c0-0.1,0.1-0.2,0.2-0.2h2c0.2,0,0.2,0.1,0.2,0.2v12.7
				C457.4,87.6,457.4,87.7,457.2,87.7z"/>
			<path fill="#FFFFFF" d="M472.4,87.7h-2c-0.2,0-0.2,0-0.2-0.2v-7.8c0-2.5-1.3-3.2-3.7-3.2c-0.8,0-1.9,0.1-2.7,0.2
				c-0.2,0-0.2,0-0.2,0.2v10.7c0,0.2-0.1,0.2-0.2,0.2h-2c-0.2,0-0.2,0-0.2-0.2V75.3c0-0.2,0-0.2,0.3-0.3c1.8-0.3,3.9-0.5,5.2-0.5
				c3.8,0,6.1,1.1,6.1,5v8C472.6,87.6,472.6,87.7,472.4,87.7z"/>
			<path fill="#FFFFFF" d="M487.1,84.2c0,3.5-0.8,5.8-2.7,7.7c-0.1,0.1-0.2,0.2-0.4,0.2h-2c-0.1,0-0.2-0.1-0.2-0.2
				c0,0,0-0.1,0.1-0.1c0.6-0.6,2.3-2.6,2.5-4c0-0.1,0-0.2-0.2-0.2c0,0,0,0-0.1,0c-0.7,0.1-1.6,0.2-2.4,0.2c-3.4,0-6.4-1.9-6.4-6.9
				c0-4.9,3.3-6.4,6.8-6.4c1.5,0,3.2,0.2,4.8,0.5c0.1,0,0.2,0.1,0.2,0.3V84.2z M484.6,76.9c0-0.1,0-0.2-0.2-0.2
				c-0.6-0.1-1.5-0.2-2.4-0.2c-2.6,0-4.3,1.1-4.3,4.5c0,3.4,1.6,5,4.2,5c0.6,0,1.7-0.1,2.5-0.2c0.1,0,0.2-0.1,0.2-0.3V76.9z"/>
			<g>
				<path fill="#FFFFFF" d="M510.8,80.4h-1.4c-0.1,0-0.2,0.1-0.2,0.2v1.8c0,3.9-2.8,5.4-6,5.4c-3.2,0-5.9-1.7-5.9-5
					c0-1.7,0.9-3.1,2.2-3.9c-0.6-0.7-1.3-1.6-1.3-3.1c0-2.8,2.8-3.9,5.4-3.9c1.2,0,2.3,0.2,3.3,0.3c0.1,0,0.2,0.1,0.2,0.2v1.3
					c0,0.1,0,0.2-0.2,0.2c-0.7-0.1-2.1-0.3-3.2-0.3c-2,0-3.1,0.8-3.1,2.3c0,1.9,1.3,2.6,3.3,2.6l6.9,0c0.2,0,0.2,0.1,0.2,0.2
					c0,0.3,0,1.4,0,1.4C511,80.4,510.9,80.4,510.8,80.4z M506.8,80.4c-2.9,0-3.7,0-6,0c-0.6,0.4-1.2,1.3-1.2,2.5
					c0,1.8,1.3,2.9,3.6,2.9c2.5,0,3.9-1.2,3.9-3.4v-1.8C507.1,80.5,507,80.4,506.8,80.4z"/>
				<path fill="#FFFFFF" d="M372.8,111.5c0,0.1-0.1,0.2-0.2,0.2h-2c-0.1,0-0.2-0.1-0.2-0.2l-1.8-13.6h-0.4l-2.5,13.6
					c0,0.2-0.1,0.2-0.2,0.2h-3.8c-0.2,0-0.2-0.1-0.2-0.3l-2.5-13.5h-0.4l-1.8,13.5c0,0.2-0.1,0.3-0.2,0.3h-2.1
					c-0.1,0-0.2-0.1-0.2-0.2v0l1.9-15.1c0-0.2,0.1-0.2,0.2-0.2h4.4c0.2,0,0.2,0,0.2,0.2l2.5,13.5h0.2l2.5-13.5
					c0-0.1,0.1-0.2,0.2-0.2h4.2c0.1,0,0.2,0.1,0.2,0.2L372.8,111.5L372.8,111.5z"/>
				<path fill="#FFFFFF" d="M386.3,111.1c0,0.2,0,0.3-0.3,0.3c-1.8,0.2-4.3,0.5-5.6,0.5c-2.6,0-5.6-0.8-5.6-4.7c0-3.7,3.6-4,5.5-4
					c0.9,0,2.8,0.2,3.5,0.3c0-2.6-1.5-3.1-3.8-3.1c-1.2,0-2.3,0.1-3.2,0.2c0,0,0,0-0.1,0c-0.1,0-0.2-0.1-0.2-0.2l-0.2-1.4v0
					c0-0.1,0.1-0.2,0.2-0.2c1.2-0.2,2.8-0.3,3.9-0.3c3.6,0,5.9,1.1,5.9,4.7V111.1z M383.9,105.3c0-0.1,0-0.2-0.3-0.2h-3.1
					c-1.6,0-3.2,0.2-3.2,2.1c0,2.3,1.7,2.6,3.1,2.6h3.2c0.2,0,0.3,0,0.3-0.2V105.3z"/>
				<path fill="#FFFFFF" d="M392.2,96.2c0,0.2,0,0.2-0.2,0.2h-2c-0.1,0-0.2-0.1-0.2-0.2v-1.9c0-0.2,0.1-0.2,0.2-0.2h2
					c0.2,0,0.2,0.1,0.2,0.2V96.2z M392,111.7h-2c-0.1,0-0.2-0.1-0.2-0.2V98.8c0-0.1,0.1-0.2,0.2-0.2h2c0.2,0,0.2,0.1,0.2,0.2v12.7
					C392.2,111.6,392.2,111.7,392,111.7z"/>
				<path fill="#FFFFFF" d="M407.2,111.7h-2c-0.2,0-0.2,0-0.2-0.2v-7.8c0-2.5-1.3-3.2-3.7-3.2c-0.8,0-1.9,0.1-2.7,0.2
					c-0.2,0-0.2,0-0.2,0.2v10.7c0,0.2-0.1,0.2-0.2,0.2h-2c-0.2,0-0.2,0-0.2-0.2V99.3c0-0.2,0-0.2,0.3-0.3c1.8-0.3,3.9-0.5,5.2-0.5
					c3.8,0,6.1,1.1,6.1,5v8C407.4,111.6,407.4,111.7,407.2,111.7z"/>
				<path fill="#FFFFFF" d="M417.3,111.4c-0.1,0.1-0.1,0.2-0.3,0.2c-1,0.1-1.6,0.2-2.4,0.2c-2.2,0-3.1-1-3.1-3.3v-8.2
					c0-0.2-0.1-0.2-0.2-0.2h-1.6c-0.2,0-0.2-0.1-0.2-0.3v-1.1c0-0.1,0.1-0.2,0.2-0.2h1.6c0.1,0,0.2-0.1,0.2-0.2v-3
					c0-0.2,0-0.2,0.2-0.3l1.9-0.2c0.2,0,0.3,0.1,0.3,0.2v3.3c0,0.2,0,0.2,0.2,0.2h2.5c0.2,0,0.2,0.1,0.2,0.2v1.1
					c0,0.1-0.1,0.2-0.2,0.2h-2.5c-0.2,0-0.2,0.1-0.2,0.2v7.5c0,1.3,0.2,1.9,1.9,1.9c0.4,0,0.8,0,1.4,0c0.2,0,0.2,0.1,0.2,0.2
					L417.3,111.4z"/>
				<path fill="#FFFFFF" d="M431.3,106.2h-9.6c-0.1,0-0.2,0-0.2,0.2c0.1,2.9,2,3.5,4.9,3.5c1.1,0,2.2-0.1,3.5-0.2
					c0.1,0,0.2,0,0.2,0.2c0,0,0,0,0,0l-0.2,1.4c0,0.2-0.1,0.2-0.3,0.2c-1.1,0.2-2.5,0.3-4,0.3c-3.9,0-6.6-1.6-6.6-6.7
					c0-4.9,2.8-6.6,6.3-6.6c4.2,0,6.2,2.3,6.2,7.4C431.5,106.1,431.5,106.2,431.3,106.2z M425.2,100.3c-2.2,0-3.7,1.2-3.7,3.8
					c0,0.2,0,0.2,0.2,0.2h7.1c0.2,0,0.2,0,0.2-0.2C429,101.6,427.5,100.3,425.2,100.3z"/>
				<path fill="#FFFFFF" d="M445.6,111.7h-2c-0.2,0-0.2,0-0.2-0.2v-7.8c0-2.5-1.3-3.2-3.7-3.2c-0.8,0-1.9,0.1-2.7,0.2
					c-0.2,0-0.2,0-0.2,0.2v10.7c0,0.2-0.1,0.2-0.2,0.2h-2c-0.2,0-0.2,0-0.2-0.2V99.3c0-0.2,0.1-0.2,0.3-0.3c1.8-0.3,3.9-0.5,5.2-0.5
					c3.8,0,6.1,1.1,6.1,5v8C445.8,111.6,445.8,111.7,445.6,111.7z"/>
				<path fill="#FFFFFF" d="M459.8,111.1c0,0.2,0,0.3-0.3,0.3c-1.8,0.2-4.3,0.5-5.5,0.5c-2.6,0-5.6-0.8-5.6-4.7c0-3.7,3.6-4,5.5-4
					c0.9,0,2.8,0.2,3.5,0.3c0-2.6-1.5-3.1-3.8-3.1c-1.2,0-2.3,0.1-3.2,0.2c0,0,0,0-0.1,0c-0.1,0-0.2-0.1-0.2-0.2l-0.2-1.4v0
					c0-0.1,0.1-0.2,0.2-0.2c1.2-0.2,2.8-0.3,3.9-0.3c3.5,0,5.9,1.1,5.9,4.7V111.1z M457.4,105.3c0-0.1-0.1-0.2-0.3-0.2H454
					c-1.6,0-3.2,0.2-3.2,2.1c0,2.3,1.7,2.6,3.1,2.6h3.2c0.2,0,0.3,0,0.3-0.2V105.3z"/>
				<path fill="#FFFFFF" d="M474.7,111.7h-2c-0.2,0-0.2,0-0.2-0.2v-7.8c0-2.5-1.3-3.2-3.7-3.2c-0.8,0-1.9,0.1-2.7,0.2
					c-0.2,0-0.2,0-0.2,0.2v10.7c0,0.2-0.1,0.2-0.2,0.2h-2c-0.2,0-0.2,0-0.2-0.2V99.3c0-0.2,0-0.2,0.3-0.3c1.8-0.3,3.9-0.5,5.2-0.5
					c3.8,0,6.1,1.1,6.1,5v8C474.9,111.6,474.8,111.7,474.7,111.7z"/>
				<path fill="#FFFFFF" d="M487.9,111.6c-0.9,0.1-2.3,0.3-3.5,0.3c-4.3,0-6.9-2.1-6.9-6.8c0-4.9,3.5-6.6,6.9-6.6
					c1,0,2.5,0.1,3.4,0.3c0.2,0,0.2,0.1,0.2,0.2l-0.2,1.3c0,0.1-0.1,0.2-0.2,0.2c0,0,0,0,0,0c-0.9-0.1-1.7-0.1-2.8-0.1
					c-2.8,0-4.8,1.2-4.8,4.6c0,3.6,2,4.8,4.8,4.8c1.2,0,2.3,0,3.1-0.1c0,0,0,0,0.1,0c0.1,0,0.2,0.1,0.2,0.2v1.4
					C488.2,111.5,488.1,111.5,487.9,111.6z"/>
				<path fill="#FFFFFF" d="M502.3,106.2h-9.6c-0.1,0-0.2,0-0.2,0.2c0.1,2.9,2,3.5,4.9,3.5c1.1,0,2.2-0.1,3.5-0.2
					c0.1,0,0.2,0,0.2,0.2c0,0,0,0,0,0l-0.2,1.4c0,0.2-0.1,0.2-0.3,0.2c-1.1,0.2-2.5,0.3-4,0.3c-3.9,0-6.6-1.6-6.6-6.7
					c0-4.9,2.8-6.6,6.3-6.6c4.2,0,6.2,2.3,6.2,7.4C502.5,106.1,502.4,106.2,502.3,106.2z M496.2,100.3c-2.2,0-3.7,1.2-3.7,3.8
					c0,0.2,0,0.2,0.2,0.2h7.1c0.2,0,0.2,0,0.2-0.2C500,101.6,498.5,100.3,496.2,100.3z"/>
			</g>
		</g>
	</g>
</g>
</svg>
